<?xml version="1.0" encoding="utf-8"?>
<!-- Generator: Adobe Illustrator 24.0.3, SVG Export Plug-In . SVG Version: 6.00 Build 0)  -->
<svg version="1.1" id="Layer_1" xmlns="http://www.w3.org/2000/svg" xmlns:xlink="http://www.w3.org/1999/xlink" x="0px" y="0px"
	 viewBox="0 0 1038 1080" style="enable-background:new 0 0 1038 1080;" xml:space="preserve">
<style type="text/css">
	.st0{fill:#FFFFFF;}
	.st1{fill:#16AB4B;}
	.st2{fill:#010101;}
	.st3{fill:none;stroke:#010101;stroke-width:3.273;stroke-linecap:round;stroke-linejoin:round;stroke-miterlimit:10;}
	.st4{fill:#ED2E3D;}
	.st5{fill:none;stroke:#010101;stroke-width:3.273;stroke-miterlimit:10;}
</style>
<path class="st0" d="M806.49,431.17c0.2,1.4,0.6,3.21,1.15,5.27l15.67,32.37c2.48,3.21,5.19,6.07,8.12,8.3
	c16.7,12.76,24.55-8.22,24.55-8.22c-0.78-0.75-1.55-1.53-2.31-2.31c0.5-0.85,1.33-1.08,2.58-0.93c0.78,0.05,1.73,0.28,2.88,0.58
	h0.03c8.9,2.26,29.16,8.78,70.15-12.46c0,0,26.13-4.59,26.13-23.97c0-10.83-7.97-21.99-7.97-21.99c6.37-7.95,16.72-21.84,4.31-34.55
	c-2.21-2.26-4.41-4.21-6.6-5.94c0,0-0.33-0.25,0,0c7.05-12.61,0.3-30.14-19.31-31.14c-8.9-0.45-13.36,4.39-14.89,9.85l-0.96,9.72
	l-13.36,4.53l-15.92-3.82c10.73-9.48,13.19-24.17,9.53-34.02v-0.03c-1.66-4.44-4.54-7.9-8.47-9.45c-2.01-0.78-3.91-0.88-5.67-0.43
	h-0.02c-0.03,0-0.03,0-0.03,0c-9.5,2.33-15.77,19.13-17.38,21.81c-1.93,3.18-5.29,2.66-9.65,13.97c-1.45,3.76-5.79,19.21-5.84,19.33
	c-4.61,16.35-10.63,37.43-16.82,48.09C826.39,415.72,803.78,412.97,806.49,431.17z"/>
<path class="st0" d="M207.73,274.17c-0.81,1.17-1.97,2.6-3.38,4.2l-28.47,21.97c-3.65,1.76-7.35,3.11-10.97,3.8
	c-20.64,3.96-18.29-18.32-18.29-18.32c1.03-0.33,2.07-0.67,3.09-1.03c-0.07-0.99-0.71-1.56-1.9-1.98c-0.72-0.3-1.67-0.53-2.84-0.77
	l-0.02-0.01c-8.97-1.95-30.01-5.17-57.21-42.47c0,0-21.33-15.77-12.68-33.11C79.89,196.74,92,190.32,92,190.32
	c-2.15-9.96-5.21-27.01,11.57-32.84c2.98-1.03,5.83-1.8,8.55-2.37c0,0,0.4-0.08,0,0c-0.67-14.43,13.19-27.1,31.18-19.25
	c8.17,3.57,10,9.89,8.93,15.47l-6.02,10.34l8.84,9.23l17.08,5.52c-5.37-13.27,1.49-29.77,9.17-36.95l0.01-0.02
	c3.46-3.23,7.59-5.04,11.8-4.67c2.14,0.2,3.89,0.96,5.26,2.15l0.02,0.01c0.02,0.01,0.02,0.01,0.02,0.01
	c7.46,6.33,5.57,24.16,5.81,27.28c0.31,3.71,3.55,4.74,2.4,16.81c-0.38,4.01-3.39,19.77-3.4,19.91c-3.17,16.69-7.2,38.24-6.42,50.54
	C196.81,251.47,218.28,259.1,207.73,274.17z"/>
<g id="Body_3_">
	<g>
		<path class="st1" d="M341.96,210.48l-26.63,70.67c-0.76,2.03-1.16,4.18-1.16,6.34v350.74c0,13.19,8.25,24.98,20.65,29.49
			l243.15,88.42c6.57,2.39,13.93,0.76,18.87-4.19l64.93-64.93c7.58-7.58,11.84-17.86,11.84-28.58V268.93
			c0-12.01-7.41-22.78-18.62-27.08l-231.03-88.58c-6.13-2.35-13.06-1.17-18.07,3.07L341.96,210.48"/>
	</g>
</g>
<g>
	<path class="st2" d="M312.56,356.01c1.19,0,2.24-0.84,2.46-2.05c0.25-1.36-0.65-2.67-2.01-2.92c-19.53-3.58-46.3-8.74-53.36-12.11
		c-18.49-8.79-52.42-62.49-52.77-63.03c-0.74-1.18-2.28-1.52-3.46-0.79c-1.17,0.74-1.52,2.29-0.79,3.46
		c1.42,2.26,35.06,55.48,54.85,64.89c5.85,2.79,22.7,6.66,54.61,12.51C312.26,356,312.41,356.01,312.56,356.01z"/>
	<g>
		<path class="st2" d="M312.56,388.06c-3.61-0.58-7.45-1.18-11.41-1.83c-22.52-3.66-48.67-8.4-57.27-12.49
			c-36.38-17.33-67.17-74.02-67.17-74.02"/>
		<path class="st2" d="M312.56,390.56c1.21,0,2.28-0.88,2.47-2.11c0.22-1.37-0.71-2.65-2.08-2.87l-2.59-0.41
			c-2.83-0.45-5.78-0.92-8.81-1.42c-11.57-1.88-46.77-7.61-56.6-12.28c-35.24-16.78-65.74-72.39-66.04-72.95
			c-0.66-1.21-2.18-1.67-3.4-1.01c-1.22,0.66-1.67,2.18-1.01,3.4c1.27,2.34,31.6,57.61,68.3,75.08c7.15,3.4,25.56,7.43,57.94,12.7
			c3.03,0.5,5.99,0.97,8.83,1.42l2.58,0.41C312.3,390.55,312.43,390.56,312.56,390.56z"/>
	</g>
	<path class="st2" d="M150.25,287.18c0.07,0,0.14,0,0.21-0.01c1.38-0.11,2.41-1.32,2.29-2.71c-0.3-3.67-3.83-4.35-7.92-5.14
		c-9.46-1.83-29.14-5.64-55.38-40.25c-0.15-0.2-0.34-0.38-0.54-0.53c-0.2-0.14-19.8-14.38-12.48-29.75c0.6-1.25,0.06-2.75-1.19-3.34
		c-1.25-0.59-2.75-0.06-3.34,1.19c-8.65,18.17,10.88,33.6,13.78,35.76c27.29,35.87,48.16,39.91,58.2,41.85
		c1.47,0.28,3.26,0.63,3.92,0.95C148.05,286.34,149.07,287.18,150.25,287.18z"/>
	<path class="st2" d="M196.74,252.99c0.07,0,0.14,0,0.21-0.01c1.38-0.12,2.41-1.33,2.29-2.71c-1.01-12.14,2.8-34.43,5.57-50.71
		c1.41-8.27,2.63-15.41,2.94-19.52c0.68-8.97-0.84-12.39-1.95-14.9c-0.42-0.94-0.69-1.55-0.77-2.3c-0.04-0.46-0.03-1.3-0.03-2.41
		c0.02-7.69,0.06-28.11-13.95-29.08c-6.19-0.41-12.32,2.99-16.85,9.37c-6.57,9.25-8.01,22.06-3.76,32.91
		c-0.84,2.5-2.38,8.9,1.55,13.92c0.85,1.09,2.43,1.28,3.52,0.43c1.09-0.85,1.28-2.43,0.43-3.52c-3.02-3.85-0.54-9.81-0.51-9.87
		c0.28-0.63,0.28-1.35,0.01-1.99c-4.91-11.51-1.54-22.8,2.85-28.97c3.5-4.92,8.04-7.61,12.42-7.27c9.33,0.64,9.29,17.66,9.28,24.06
		c0,1.33,0,2.34,0.06,2.91c0.16,1.56,0.68,2.73,1.18,3.85c0.95,2.13,2.12,4.77,1.54,12.48c-0.3,3.87-1.49,10.91-2.88,19.05
		c-2.98,17.46-6.68,39.19-5.63,51.96C194.35,251.99,195.45,252.99,196.74,252.99z"/>
	<path class="st2" d="M154.2,287.43c27.4,0,44.08-34.34,44.81-35.87c0.6-1.25,0.06-2.74-1.19-3.34c-1.25-0.6-2.74-0.07-3.34,1.18
		c-0.17,0.36-17.59,36.19-43.9,32.78c-1.36-0.16-2.63,0.79-2.81,2.17c-0.18,1.37,0.79,2.63,2.17,2.81
		C151.38,287.34,152.81,287.43,154.2,287.43z"/>
	<path class="st2" d="M150.54,303.22c-6.78-6-5.9-17.2-5.86-17.67c0.09-0.99,0.75-1.84,1.7-2.16c1-0.34,2.01-0.69,3-1.06
		c0.38-0.14,0.79-0.19,1.2-0.14c26.28,3.42,43.73-32.42,43.9-32.78c0.54-1.14,1.85-1.7,3.06-1.3c0.5,0.17,12.18,4.16,15.14,12.87
		c1.45,4.26,0.6,8.77-2.51,13.4c-0.82,1.23-1.99,2.74-3.49,4.5c-5.97,6.95-17.11,17.17-28.83,23.1c-4.05,2.05-7.93,3.47-11.51,4.22
		c-1.95,0.41-3.78,0.62-5.5,0.62C156.69,306.81,153.24,305.61,150.54,303.22z M154.2,287.43c-1.19,0-2.41-0.07-3.64-0.2
		c-0.3,0.11-0.61,0.22-0.92,0.33c0.04,2.82,0.58,8.69,4.23,11.91c2.57,2.26,6.41,2.86,11.42,1.81c3.16-0.66,6.62-1.93,10.28-3.79
		c11.07-5.6,21.62-15.29,27.29-21.89c1.36-1.6,2.41-2.95,3.12-4.02c0,0,0-0.01,0.01-0.01c2.23-3.31,2.86-6.25,1.93-8.99
		c-1.55-4.57-7.02-7.59-10-8.93C193.77,261.42,178.05,287.44,154.2,287.43z"/>
	<path class="st2" d="M141.24,164.91c0.01,0,0.02,0,0.02,0c4.86-0.05,10.11-5.97,11.46-12.93c1.57-8.11-2.41-14.99-10.67-18.41
		c-8.95-3.72-17.98-3.06-24.77,1.8c-6.4,4.58-10.04,12.45-9.51,20.52c0.09,1.38,1.26,2.4,2.67,2.34c1.38-0.09,2.43-1.29,2.34-2.67
		c-0.42-6.36,2.43-12.53,7.43-16.11c5.42-3.88,12.5-4.33,19.93-1.25c8.18,3.39,8.31,9.49,7.67,12.82c-0.99,5.12-4.62,8.85-6.58,8.87
		c-1.38,0.01-2.5,1.15-2.48,2.53C138.75,163.8,139.87,164.91,141.24,164.91z"/>
	<path class="st2" d="M172.13,178.92c0.94,0,1.84-0.53,2.26-1.43c0.6-1.25,0.06-2.74-1.19-3.34c-2.52-1.2-5.8-2.07-8.98-2.92
		c-2.95-0.79-6-1.6-8.1-2.6c-3.23-1.54-6.7-6.48-7.77-8.25c-0.71-1.19-2.25-1.57-3.44-0.86s-1.57,2.25-0.86,3.44
		c0.47,0.79,4.75,7.74,9.91,10.2c2.52,1.2,5.8,2.07,8.97,2.92c2.95,0.79,6.01,1.6,8.11,2.6
		C171.4,178.84,171.77,178.92,172.13,178.92z"/>
	<path class="st2" d="M90.82,193.79c0.19,0,0.38-0.02,0.58-0.07c1.35-0.32,2.18-1.67,1.87-3.02c-3-12.75-3.94-25.22,9.38-30.12
		c14.61-5.37,27.4-4.7,35.08,1.84c3.21,2.74,4.74,6.05,4.31,9.32c-0.54,4.08-4.01,7.93-9.54,10.56c-6.55,3.12-10.86,3.57-14.66,3.96
		c-2.68,0.28-5.2,0.54-7.97,1.66c-1.28,0.52-1.9,1.98-1.39,3.26c0.52,1.28,1.97,1.9,3.26,1.39c2.11-0.85,4.1-1.06,6.61-1.32
		c4-0.41,8.97-0.93,16.3-4.42c7.09-3.38,11.59-8.64,12.35-14.44c0.66-5.02-1.48-9.91-6.03-13.79c-9.1-7.76-23.7-8.75-40.06-2.74
		c-19.32,7.11-14.56,27.34-12.52,35.97C88.65,193.01,89.68,193.79,90.82,193.79z"/>
	<path class="st2" d="M87.44,243.1c0.78,0,1.55-0.36,2.04-1.05c0.8-1.13,0.54-2.69-0.59-3.5c-0.2-0.14-19.8-14.39-12.47-29.77
		c4.63-9.72,14.32-13.53,19.68-14.93c7.96-2.08,16.79-1.67,22.49,1.05c2.74,1.3,4.16,3.46,4.35,6.61c0.32,5.36-3.16,11.63-5.1,12.85
		c-8.49,5.37-14.75,5.67-19.79,5.91c-4.06,0.19-7.56,0.36-10.27,3.31c-0.94,1.02-0.87,2.61,0.15,3.54c1.02,0.94,2.61,0.87,3.54-0.15
		c1.26-1.37,3.1-1.52,6.82-1.69c5.32-0.26,12.61-0.6,22.22-6.68c3.77-2.38,7.83-10.5,7.42-17.39c-0.3-5-2.79-8.74-7.2-10.84
		c-6.81-3.24-16.74-3.77-25.92-1.37c-10.72,2.8-18.86,9.06-22.94,17.62c-9.13,19.19,13.14,35.33,14.09,36.01
		C86.44,242.95,86.94,243.1,87.44,243.1z"/>
</g>
<g>
	<g>
		<polygon class="st2" points="329.34,798.68 328.39,796.39 328.4,796.38 328.39,796.38 328.4,796.38 330.18,794.6 327.42,794.05 
			325.87,796.38 328.37,796.38 326.63,798.15 328.39,796.39 		"/>
		<g>
			<path class="st0" d="M306.99,817.16c-0.03,0.03-0.03,0.03-0.03,0.05c-0.35,0.68-0.7,1.35-1.05,2.06
				c-6.22,12.89-11.68,28.16-4.61,42.98c7.05,14.79,27.91,32.62,58.6,37.23c55.19,8.32,125.29-75.92,127.32-80.36
				c1.48-3.18,7.9-26.78-5.99-43.18c0,0,0,0,0-0.03"/>
			<path class="st2" d="M367.63,902.56c54.9,0,119.74-77.74,121.87-82.39c1.78-3.84,8.2-28.65-6.36-45.84l-1.9,1.61l-2.52-0.01v0.92
				l0.59,0.73c12.84,15.16,6.96,37.63,5.63,40.5c-1.08,2.02-18.65,23.83-43.53,44.48c-21.72,18.02-53.43,38.65-81.15,34.45
				c-29.5-4.43-49.73-21.19-56.71-35.83c-6.61-13.85-1.38-28.4,4.61-40.81c0.33-0.66,0.67-1.32,1.02-1.99l0.28-0.54l0-0.62h-2.44
				l-1.82-1.82l-0.31,0.75l-0.16-0.09c-0.36,0.69-0.71,1.38-1.07,2.09c-6.52,13.51-12.15,29.42-4.63,45.18
				c7.54,15.84,29.17,33.93,60.49,38.64C362.2,902.36,364.9,902.56,367.63,902.56z"/>
		</g>
		<g>
			<path class="st0" d="M460.97,749.26c11.91,6.29,17.7,16.45,20.26,26.65c0,0.03,0,0.03,0,0.03c3.89,15.47,0.3,31.04-0.78,33.4
				c-1.5,3.23-36.81,45.66-75.62,65.52c-14.52,7.45-29.51,11.73-43.43,9.63c-36.06-5.44-65.34-36.08-54.43-67.27
				c0-0.03,0-0.03,0.03-0.05c0.85-2.46,1.96-4.91,3.33-7.37c1.96-3.49,5.06-7.25,9-11.16c17.5-17.45,51.17-37.91,70.33-48.92"/>
			<path class="st2" d="M368.64,887.52c11.28,0,23.8-3.49,37.33-10.44c39.18-20.04,74.96-62.84,76.75-66.69
				c1.33-2.9,4.91-18.88,1.01-34.76l-0.07-0.33c-3.24-12.92-10.48-22.43-21.52-28.26l-2.34,4.43c9.65,5.1,16.02,13.44,18.93,24.78
				l0.07,0.29c3.64,14.5,0.35,29.6-0.63,31.75c-1.23,2.31-35.32,44.29-74.48,64.33c-15.71,8.06-29.8,11.21-41.91,9.38
				c-20.5-3.09-39.05-14.66-48.41-30.19c-6.46-10.72-7.91-22.22-4.2-33.28l0.01,0l0.19-0.55c0.81-2.34,1.87-4.69,3.15-6.97
				c1.75-3.12,4.64-6.69,8.58-10.61c17.31-17.26,51.17-37.81,69.81-48.52l-2.5-4.35c-18.86,10.84-53.14,31.66-70.85,49.32
				c-4.27,4.24-7.44,8.18-9.42,11.71c-1.32,2.36-2.44,4.79-3.32,7.23l-0.33,0.33l-0.01,0.64c-4.27,12.55-2.68,25.56,4.6,37.64
				c10.11,16.78,30.02,29.25,51.96,32.56C363.5,887.34,366.04,887.52,368.64,887.52z"/>
		</g>
		<g>
			<path class="st0" d="M400.11,733.77c-6.34,4.16-10.31,9.78-10.46,15.95c-0.03,0.25-0.03,0.5-0.03,0.78
				c0.35,12.61,16.92,28.18,36.63,27.66c12.94-0.35,24.02-7.57,29.96-16.07c2.98-4.19,4.66-8.68,4.74-12.81c0-0.23,0-0.45,0-0.68
				c-0.2-7.6-6.17-14.19-15.22-18.1"/>
			<path class="st2" d="M425.27,780.67c0.35,0,0.71,0,1.06-0.01c15.01-0.41,26.34-9.12,31.95-17.14c3.31-4.64,5.11-9.56,5.19-14.21
				v-0.72c-0.22-8.37-6.48-15.97-16.73-20.4l-1.99,4.6c8.42,3.64,13.54,9.57,13.71,15.87l0,0.61c-0.06,3.53-1.58,7.58-4.27,11.36
				c-4.92,7.04-14.84,14.66-27.99,15.02c-18.01,0.56-33.73-13.46-34.06-25.22c0-0.12,0-0.29,0.01-0.47
				c0.14-5.29,3.45-10.23,9.34-14.09l-2.75-4.19c-7.31,4.79-11.42,11.18-11.59,17.98c-0.02,0.15-0.03,0.48-0.03,0.84
				C387.51,764.42,404.51,780.67,425.27,780.67z"/>
		</g>
		<path class="st2" d="M402.32,874.95l5.01-0.19c-0.02-0.61-0.64-15.12-7.51-33.02c-5.6-14.6-32.57-36.7-54.45-44.64
			c-11.44-4.15-20.61-4.37-27.26-0.66l2.44,4.38c5.25-2.93,13.24-2.58,23.11,1c22.19,8.04,46.85,29.66,51.47,41.72
			C401.71,860.67,402.31,874.81,402.32,874.95z"/>
		<path class="st2" d="M414.34,798.69l3.35-3.73c-12.5-11.26-28.42-21.51-40.56-26.12l-1.78,4.69
			C386.95,777.93,402.26,787.81,414.34,798.69z"/>
		<path class="st2" d="M402.92,807.11l3.35-3.73c-12.5-11.25-28.42-21.51-40.56-26.13l-1.78,4.69
			C375.54,786.36,390.85,796.24,402.92,807.11z"/>
		<path class="st2" d="M436.51,805.77l10.9-10.37l25.53,26.83l-10.35,10.95L436.51,805.77z M447.24,802.49l-3.63,3.46l18.98,19.94
			l3.45-3.65L447.24,802.49z"/>
		<path class="st2" d="M419.61,822.29l10.89-10.37l25.96,27.27l-11.3,9.95L419.61,822.29z M430.33,819.01l-3.63,3.46l18.77,19.72
			l3.76-3.32L430.33,819.01z"/>
	</g>
	<g>
		<polygon class="st2" points="494.84,848.82 493.88,846.54 493.89,846.52 493.87,846.52 493.89,846.52 495.64,844.73 492.9,844.2 
			491.36,846.52 493.86,846.52 492.14,848.32 493.87,846.54 		"/>
		<g>
			<path class="st0" d="M472.45,867.36v0.03c-0.38,0.65-0.73,1.33-1.05,2.03c-6.22,12.89-11.68,28.16-4.61,42.98
				c7.05,14.79,27.91,32.62,58.6,37.23c55.19,8.32,125.29-75.92,127.32-80.36c1.48-3.18,7.9-26.8-5.99-43.2v-0.03"/>
			<path class="st2" d="M533.12,952.7c54.91,0,119.74-77.74,121.87-82.39c1.78-3.84,8.21-28.67-6.36-45.87l-1.9,1.61l-2.52-0.01
				v0.92l0.59,0.73c12.85,15.17,6.96,37.66,5.63,40.53c-1.08,2.02-18.65,23.83-43.53,44.48c-21.72,18.02-53.42,38.65-81.15,34.45
				c-29.5-4.43-49.73-21.19-56.71-35.83c-6.61-13.85-1.38-28.4,4.61-40.81c0.31-0.67,0.63-1.28,0.97-1.87l0.34-0.58v-0.67
				l-2.53-0.01l-2.15-1.24c-0.41,0.72-0.8,1.46-1.16,2.23c-6.49,13.45-12.12,29.35-4.6,45.11c7.54,15.84,29.17,33.93,60.49,38.64
				C527.68,952.51,530.39,952.7,533.12,952.7z"/>
		</g>
		<path class="st2" d="M590.06,814.24c2.02,0,4.04-0.24,6.05-0.74c9.11-2.24,16.13-9.3,18.33-18.42l-4.88-1.18
			c-1.76,7.29-7.38,12.93-14.66,14.73c-5.2,1.29-10.59,0.47-15.17-2.3c-4.59-2.77-7.82-7.16-9.1-12.36l-0.46-1.78l-4.86,1.25
			l0.45,1.76c1.6,6.48,5.64,11.97,11.37,15.43C581.11,813.02,585.55,814.24,590.06,814.24z"/>
		<g>
			<path class="st0" d="M555.14,799.86c-19.16,11.01-52.83,31.47-70.33,48.92c-3.94,3.91-7.05,7.67-9,11.16
				c-1.38,2.48-2.51,4.94-3.36,7.42v0.03c-10.88,31.19,18.38,61.81,54.43,67.25c13.92,2.11,28.91-2.18,43.43-9.63
				c38.81-19.86,74.12-62.28,75.62-65.52c1.08-2.36,4.66-17.95,0.78-33.42v-0.03c-2.56-10.2-8.35-20.33-20.26-26.63"/>
			<path class="st2" d="M534.13,937.67c11.28,0,23.8-3.49,37.33-10.44c39.18-20.05,74.96-62.84,76.75-66.69
				c1.33-2.91,4.91-18.89,1.01-34.79l-0.08-0.33c-3.23-12.9-10.47-22.4-21.52-28.23l-2.34,4.43c9.66,5.11,16.03,13.43,18.93,24.76
				l0.07,0.29c3.65,14.51,0.36,29.62-0.63,31.77c-1.23,2.31-35.31,44.29-74.48,64.33c-15.71,8.06-29.81,11.21-41.91,9.38
				c-20.5-3.1-39.04-14.65-48.4-30.17c-6.56-10.88-7.96-22.56-4.05-33.78l0.14-0.43c0.77-2.15,1.76-4.33,3.04-6.63
				c1.74-3.11,4.63-6.68,8.58-10.6c17.3-17.25,51.17-37.81,69.81-48.52l-2.5-4.35c-18.86,10.84-53.14,31.66-70.85,49.32
				c-4.27,4.24-7.44,8.18-9.42,11.71c-1.51,2.71-2.66,5.27-3.54,7.83l-0.14,0.42c-4.25,12.55-2.65,25.54,4.63,37.61
				c10.11,16.76,30.01,29.22,51.94,32.53C528.98,937.48,531.52,937.67,534.13,937.67z"/>
		</g>
		<g>
			<path class="st0" d="M555.12,800.64c0.35,12.61,16.92,28.18,36.63,27.66c12.94-0.35,24.02-7.57,29.96-16.07
				c2.98-4.19,4.66-8.68,4.74-12.81v-0.68c-0.2-7.6-6.17-14.19-15.22-18.1c0.13,0.43,0.23,0.85,0.33,1.28l0.45,1.86
				c0.9,3.66,0.85,7.32,0,10.73c-1.91,7.9-8.05,14.49-16.5,16.57c-12.08,2.98-24.32-4.39-27.3-16.5l-0.45-1.76v-0.05
				c-0.68-2.76-1.43-5.72-2.16-8.85c-6.34,4.16-10.31,9.78-10.46,15.95C555.12,800.11,555.12,800.36,555.12,800.64z"/>
			<path class="st2" d="M552.61,800.71l0-0.07c0-0.36,0-0.69,0.03-0.84c0.17-6.8,4.28-13.19,11.59-17.98l3.01-1.97l0.81,3.5
				c0.53,2.27,1.07,4.45,1.58,6.53l1.02,4.09c1.28,5.2,4.51,9.59,9.1,12.36c4.58,2.77,9.97,3.59,15.17,2.3
				c7.28-1.79,12.9-7.44,14.67-14.75c0.78-3.14,0.78-6.34,0-9.53l-0.46-1.88c-0.09-0.38-0.18-0.76-0.29-1.14l-1.51-5.13l4.91,2.12
				c10.26,4.43,16.51,12.04,16.73,20.4l0,0.72c-0.08,4.64-1.88,9.56-5.19,14.2c-5.61,8.02-16.94,16.73-31.95,17.14
				c-0.36,0.01-0.71,0.01-1.06,0.01C570,830.81,553,814.57,552.61,800.71z M614.45,795.08c-2.2,9.12-9.23,16.18-18.34,18.42
				c-6.5,1.6-13.23,0.58-18.96-2.88c-5.73-3.46-9.78-8.95-11.37-15.43l-1.02-4.11c-0.23-0.94-0.47-1.91-0.71-2.89
				c-4.05,3.46-6.3,7.57-6.41,11.9c-0.02,0.16-0.01,0.32-0.01,0.5c0.35,11.75,16.12,25.76,34.06,25.19
				c13.14-0.36,23.07-7.98,27.99-15.02c2.69-3.78,4.21-7.83,4.27-11.36l0-0.61c-0.13-5.04-3.44-9.84-9.06-13.42
				C615.38,788.62,615.23,791.94,614.45,795.08z"/>
		</g>
		<path class="st2" d="M567.8,925.1l5.01-0.19c-0.02-0.61-0.64-15.12-7.51-33.02c-5.6-14.6-32.57-36.71-54.45-44.64
			c-11.44-4.15-20.61-4.37-27.26-0.66l2.44,4.38c5.25-2.93,13.24-2.58,23.1,1c22.19,8.04,46.85,29.66,51.48,41.72
			C567.17,910.76,567.8,924.96,567.8,925.1z"/>
		<path class="st2" d="M579.82,848.83l3.35-3.73c-12.5-11.26-28.43-21.51-40.56-26.12l-1.78,4.69
			C552.44,828.08,567.74,837.96,579.82,848.83z"/>
		<path class="st2" d="M568.41,857.26l3.36-3.73c-12.5-11.25-28.42-21.51-40.56-26.13l-1.78,4.69
			C541.03,836.51,556.33,846.38,568.41,857.26z"/>
		<path class="st2" d="M602,855.92l10.9-10.37l25.53,26.83l-10.35,10.95L602,855.92z M612.72,852.64l-3.63,3.46l18.98,19.94
			l3.45-3.65L612.72,852.64z"/>
		<path class="st2" d="M585.1,872.44l10.89-10.37l25.96,27.27l-11.29,9.95L585.1,872.44z M595.82,869.15l-3.63,3.46l18.77,19.72
			l3.76-3.32L595.82,869.15z"/>
	</g>
	<g>
		<path class="st2" d="M560.31,750.24c0.83,12.76,3.06,24.07,5.29,33.67c0.73,3.13,1.48,6.09,2.16,8.85v0.05l0.45,1.76
			c2.98,12.11,15.22,19.48,27.3,16.5c8.45-2.08,14.59-8.68,16.5-16.57c0.85-3.41,0.9-7.07,0-10.73l-0.45-1.86
			c-0.1-0.43-0.2-0.85-0.33-1.28c-2.63-10.66-5.59-23.04-5.99-37.06l-16.87,16.87L560.31,750.24z"/>
		<path class="st2" d="M577.15,810.63c-5.73-3.46-9.78-8.95-11.37-15.43l-0.45-1.76c-0.02-0.08-0.03-0.16-0.05-0.24l-0.52-2.11
			c-0.52-2.1-1.07-4.31-1.6-6.61c-2.03-8.73-4.47-20.49-5.35-34.08c-0.06-0.84,0.32-1.66,1-2.17c0.68-0.51,1.57-0.64,2.36-0.35
			l26.56,9.66l15.75-15.75c0.71-0.71,1.77-0.92,2.7-0.56c0.93,0.37,1.55,1.26,1.58,2.26c0.41,14.21,3.59,27.11,5.89,36.42
			c0.14,0.47,0.25,0.94,0.36,1.39l0.45,1.85c0.97,3.93,0.97,8.06,0,11.92c-2.2,9.12-9.23,16.18-18.34,18.42
			c-2.01,0.49-4.04,0.74-6.05,0.74C585.55,814.24,581.11,813.02,577.15,810.63z M590.14,762.22c-0.69,0.69-1.72,0.92-2.63,0.58
			l-24.4-8.88c1.03,11.61,3.15,21.72,4.94,29.42c0.53,2.27,1.07,4.45,1.58,6.53l0.57,2.28c0.02,0.06,0.03,0.13,0.04,0.2l0.41,1.6
			c1.28,5.2,4.51,9.59,9.1,12.36c4.58,2.77,9.97,3.59,15.17,2.3c7.28-1.79,12.9-7.44,14.67-14.75c0.78-3.14,0.78-6.34,0-9.53
			l-0.46-1.88c-0.09-0.38-0.18-0.76-0.32-1.25c-2.07-8.38-4.81-19.46-5.76-31.91L590.14,762.22z"/>
	</g>
	<g>
		<path class="st2" d="M394.47,689.94c0.03,16.97,2.83,31.74,5.64,43.83c0.73,3.13,1.48,6.09,2.16,8.85v0.05l0.45,1.76
			c2.98,12.11,15.22,19.48,27.3,16.5c8.45-2.08,14.59-8.68,16.5-16.57c0.85-3.41,0.9-7.07,0-10.73l-0.45-1.86
			c-0.1-0.43-0.2-0.85-0.33-1.28c-1.76-7.12-3.66-15.02-4.86-23.67L394.47,689.94z"/>
		<path class="st2" d="M411.67,760.48c-5.73-3.46-9.78-8.95-11.37-15.43l-0.45-1.76c-0.02-0.08-0.03-0.16-0.05-0.24l-0.53-2.13
			c-0.52-2.09-1.07-4.29-1.6-6.58c-2.64-11.37-5.68-26.7-5.71-44.39c0-0.82,0.4-1.59,1.07-2.06c0.67-0.47,1.53-0.59,2.3-0.3
			l46.41,16.88c0.87,0.32,1.5,1.09,1.63,2.01c1.15,8.23,2.93,15.77,4.79,23.31c0.14,0.47,0.25,0.94,0.36,1.39l0.45,1.85
			c0.97,3.93,0.97,8.06,0,11.92c-2.2,9.12-9.23,16.18-18.33,18.42c-2.01,0.49-4.04,0.74-6.05,0.74
			C420.07,764.1,415.63,762.87,411.67,760.48z M397.03,693.54c0.39,15.68,3.13,29.33,5.53,39.67c0.53,2.26,1.07,4.44,1.58,6.51
			l0.57,2.31c0.02,0.06,0.03,0.13,0.04,0.2l0.41,1.6c1.28,5.2,4.51,9.59,9.1,12.36c4.58,2.77,9.97,3.58,15.17,2.3
			c7.28-1.79,12.9-7.44,14.67-14.75c0.78-3.14,0.78-6.34,0-9.53l-0.46-1.87c-0.09-0.38-0.18-0.77-0.32-1.25
			c-1.8-7.31-3.52-14.54-4.7-22.42L397.03,693.54z"/>
	</g>
</g>
<path class="st2" d="M559.45,752.6l1.71-4.71l-228.9-83.23c-9.32-3.39-17.2-14.64-17.2-24.56V282.47h-5.01v357.62
	c0,12.03,9.2,25.16,20.5,29.27L559.45,752.6z"/>
<path class="st2" d="M607.01,745.34l54.19-54.19c8.23-8.23,14.92-24.38,14.92-36.02V491.91h-5.01v163.23
	c0,10.31-6.16,25.18-13.45,32.47l-54.19,54.19L607.01,745.34z"/>
<path class="st2" d="M671.11,456.43h5.01V267.15c0-12.01-9.13-25.28-20.34-29.57l-36.43-13.96c-10.06-3.86-18.35-7.03-18.71-7.17
	l-0.02,0.06c-1.45-0.63-5.64-2.24-18.75-7.27l-149.39-57.29c-9.75-3.74-23.09-5.19-28.62-0.51l-7.37,6.24l3.24,3.82l7.37-6.24
	c2.95-2.5,13.36-2.56,23.58,1.37l149.39,57.29c10.06,3.86,18.34,7.03,18.7,7.18l0.03-0.07c1.48,0.66,5.65,2.26,18.75,7.28
	l36.43,13.96c9.28,3.56,17.12,14.95,17.12,24.89V456.43z"/>
<g>
	<g>
		<path class="st2" d="M823.15,467.29c0,0-52.15,37.96-92.45,37.96c-9.53,0-35.18-6.97-57.09-13.34
			c-13.44-3.91-25.47-7.57-31.52-9.28c-15.92-4.49-8.42-36.73,8.37-32.42c4.84,1.23,13.36,3.59,23.14,6.22
			c21.59,5.84,49.42,13.11,57.79,13.11c21.44,0,76.07-34.63,76.07-34.63"/>
		<path class="st2" d="M730.71,507.76c40.64,0,91.77-36.87,93.92-38.44c1.12-0.82,1.37-2.38,0.55-3.5c-0.82-1.12-2.38-1.37-3.5-0.55
			c-0.52,0.37-51.97,37.48-90.97,37.48c-10.84,0-45.13-9.96-56.39-13.24c-6.49-1.89-12.65-3.72-17.97-5.3
			c-5.7-1.69-10.44-3.1-13.57-3.98c-6.58-1.85-8.1-9.94-6.21-16.97c1.76-6.52,6.54-12.34,13.28-10.6c3.19,0.81,7.98,2.11,13.67,3.65
			l9.45,2.56c22.71,6.14,49.87,13.2,58.45,13.2c21.91,0,75.16-33.58,77.42-35.01c1.17-0.74,1.52-2.29,0.78-3.46
			c-0.74-1.17-2.29-1.52-3.46-0.78c-0.54,0.34-54.26,34.24-74.73,34.24c-9.01,0-43.98-9.46-57.14-13.02l-9.44-2.56
			c-5.72-1.55-10.54-2.86-13.74-3.67c-9.99-2.57-17.04,5.54-19.36,14.16c-2.53,9.41-0.02,20.37,9.69,23.11
			c3.11,0.88,7.83,2.28,13.5,3.96c5.33,1.58,11.5,3.41,17.99,5.31C704.46,503.49,722.82,507.76,730.71,507.76z"/>
	</g>
	<path class="st2" d="M877.61,469.98c11.88,0,28.73-3.14,52.38-15.34c3.55-0.7,27.81-6.25,27.81-26.37c0-1.39-1.12-2.51-2.51-2.51
		c-1.38,0-2.51,1.12-2.51,2.51c0,17.08-23.81,21.46-24.05,21.5c-0.25,0.04-0.49,0.13-0.72,0.24c-38.56,19.97-57.97,14.95-67.3,12.54
		c-4.03-1.05-7.51-1.94-9.36,1.24c-0.7,1.2-0.29,2.73,0.91,3.43c1.1,0.64,2.49,0.35,3.25-0.64c0,0,0.01,0,0.01,0
		c0.74,0,2.5,0.46,3.94,0.83C863.51,468.46,869.36,469.97,877.61,469.98z"/>
	<path class="st2" d="M826.24,416.72c0.86,0,1.7-0.45,2.17-1.25c6.44-11.08,12.44-32.3,17.25-49.34c2.25-7.95,4.19-14.82,5.58-18.44
		c2.78-7.21,4.98-9.09,6.75-10.61c0.93-0.8,1.9-1.63,2.71-2.96c0.3-0.5,0.74-1.41,1.31-2.61c2.74-5.79,10.02-21.17,18.72-17.74
		c4.09,1.62,7.04,5.95,8.08,11.9c1.31,7.46-0.5,19.1-9.88,27.38c-0.52,0.46-0.83,1.11-0.85,1.8c0,0.06-0.3,6.5-4.7,8.69
		c-1.24,0.62-1.74,2.12-1.13,3.36c0.62,1.24,2.12,1.75,3.36,1.13c5.71-2.84,7.07-9.29,7.39-11.91c8.5-7.97,12.71-20.15,10.75-31.32
		c-1.35-7.71-5.43-13.43-11.18-15.71c-13.07-5.15-21.81,13.31-25.1,20.26c-0.47,1-0.83,1.76-1.07,2.17
		c-0.38,0.63-0.9,1.07-1.67,1.74c-2.08,1.78-4.93,4.22-8.17,12.61c-1.48,3.84-3.45,10.81-5.73,18.88
		c-4.49,15.89-10.64,37.65-16.76,48.18c-0.7,1.2-0.29,2.73,0.91,3.43C825.37,416.61,825.81,416.72,826.24,416.72z"/>
	<path class="st2" d="M853.52,467.56c1.05,0,2.04-0.67,2.38-1.73c0.43-1.31-0.29-2.73-1.6-3.16c-25.22-8.25-25.55-48.07-25.55-48.47
		c0-1.38-1.12-2.5-2.51-2.5c0,0,0,0,0,0c-1.38,0-2.51,1.12-2.51,2.51c0,1.79,0.33,43.85,29.01,53.23
		C853,467.53,853.26,467.56,853.52,467.56z"/>
	<path class="st2" d="M829.76,477.58c-2.92-2.22-5.81-5.17-8.59-8.76c-8.04-10.39-13.7-24.4-16.11-33.26
		c-0.59-2.21-1-4.08-1.21-5.55c-0.82-5.53,0.36-9.96,3.49-13.18c6.42-6.59,18.68-5.18,19.2-5.11c1.26,0.15,2.2,1.22,2.2,2.49
		c0,0.4,0.33,40.22,25.55,48.47c0.39,0.13,0.74,0.35,1.02,0.64c0.73,0.76,1.49,1.52,2.25,2.25c0.72,0.69,0.95,1.75,0.6,2.68
		c-0.17,0.45-4.18,10.93-12.88,13.44c-1.24,0.36-2.5,0.54-3.78,0.54C837.73,482.22,833.79,480.66,829.76,477.58z M852.14,467.24
		c-24.6-8.55-27.9-41.43-28.35-50.67c-3.28-0.08-9.51,0.31-12.87,3.77c-2.01,2.07-2.7,5-2.12,8.94c0,0,0,0.01,0,0.01
		c0.18,1.25,0.56,2.97,1.09,4.96c2.29,8.4,7.65,21.68,15.24,31.5c2.51,3.24,5.08,5.88,7.66,7.84c4.07,3.11,7.8,4.2,11.09,3.27
		c4.68-1.34,7.69-6.41,8.94-8.94C852.6,467.7,852.37,467.47,852.14,467.24z"/>
	<path class="st2" d="M945.03,368.31c0.88,0,1.73-0.46,2.19-1.28c3.95-7.06,4.04-15.72,0.23-22.61
		c-4.04-7.31-11.91-11.78-21.59-12.27c-8.94-0.41-15.48,4.05-17.55,12.05c-1.77,6.87,0.42,14.47,4.79,16.6
		c1.24,0.61,2.75,0.09,3.35-1.15c0.61-1.24,0.09-2.74-1.16-3.35c-1.76-0.86-3.43-5.79-2.13-10.84c0.85-3.29,3.6-8.78,12.43-8.29
		c8.03,0.41,14.23,3.85,17.46,9.69c2.97,5.38,2.89,12.18-0.22,17.74c-0.68,1.21-0.24,2.74,0.96,3.41
		C944.19,368.21,944.61,368.31,945.03,368.31z"/>
	<path class="st2" d="M898.09,362.78c5.71,0,12.57-4.44,13.33-4.95c1.15-0.77,1.47-2.32,0.7-3.47c-0.77-1.15-2.32-1.47-3.47-0.7
		c-1.73,1.14-7,4.11-10.56,4.11c-2.33,0-5.43-0.58-8.43-1.14c-3.23-0.6-6.57-1.22-9.36-1.22c-1.38,0-2.51,1.12-2.51,2.51
		s1.12,2.51,2.51,2.51c2.33,0,5.44,0.58,8.44,1.14C891.96,362.15,895.3,362.78,898.09,362.78z"/>
	<path class="st2" d="M947.32,408.79c0.74,0,1.46-0.32,1.96-0.94c5.55-6.93,18.54-23.15,4.15-37.86
		c-12.19-12.47-25.8-17.84-37.35-14.75c-5.77,1.55-9.81,5.05-11.37,9.86c-1.8,5.56,0,12.25,4.95,18.34c5.12,6.3,9.39,8.91,12.82,11
		c2.16,1.32,3.86,2.36,5.4,4.04c0.94,1.02,2.52,1.09,3.54,0.15c1.02-0.94,1.09-2.52,0.15-3.54c-2.02-2.2-4.19-3.52-6.49-4.92
		c-3.26-1.99-6.96-4.25-11.53-9.88c-3.86-4.75-5.34-9.72-4.07-13.64c1.02-3.14,3.82-5.47,7.9-6.56c9.74-2.6,21.58,2.28,32.46,13.41
		c9.92,10.14,3.71,21-4.48,31.22c-0.87,1.08-0.69,2.66,0.39,3.52C946.21,408.61,946.77,408.79,947.32,408.79z"/>
	<path class="st2" d="M929.17,454.76c0.14,0,0.29-0.01,0.44-0.04c1.15-0.2,28.2-5.21,28.2-26.45c0-20.7-22.18-35.68-37.13-35.68
		c-4.89,0-8.75,2.32-11.16,6.7c-3.33,6.05-3.15,15.12-0.77,18.89c6.07,9.61,12.5,13.06,17.2,15.58c3.28,1.76,4.88,2.68,5.43,4.46
		c0.41,1.32,1.81,2.07,3.14,1.66c1.32-0.41,2.06-1.81,1.66-3.13c-1.18-3.82-4.27-5.48-7.85-7.4c-4.44-2.38-9.96-5.34-15.33-13.84
		c-1.22-1.93-1.67-9.09,0.92-13.79c1.52-2.76,3.74-4.11,6.77-4.11c12.63,0,32.11,13.17,32.11,30.66c0,17.09-23.81,21.47-24.05,21.52
		c-1.36,0.24-2.27,1.54-2.03,2.9C926.92,453.9,927.98,454.76,929.17,454.76z"/>
</g>
<g>
	<path class="st4" d="M389.26,376.42c0,0,20.39,28.03,34.33,47.24c13.97,19.18,31.84,23.32,44.78,16.1
		c15.52-8.65,29.79-17.9,29.79-17.9c4.61-3.03,2.78-12.24-4.79-15.27c0,0-91.69-36.71-97.54-39.19
		C389.96,364.91,385.7,370.58,389.26,376.42z"/>
	<path class="st2" d="M421.56,425.13c-13.94-19.21-34.33-47.24-34.33-47.24c-0.04-0.05-0.08-0.11-0.11-0.17
		c-2.3-3.78-2.21-8.05,0.23-10.87c2.25-2.6,5.87-3.28,9.46-1.77c5.75,2.44,96.57,38.8,97.49,39.17c4.86,1.95,8.32,6.37,8.82,11.28
		c0.36,3.56-0.98,6.71-3.6,8.43c-0.14,0.09-14.52,9.4-29.93,17.99c-4.51,2.52-9.31,3.74-14.18,3.74
		C443.57,445.68,431.27,438.48,421.56,425.13z M391.14,370.13c-0.74,0.86-1.13,2.66,0.21,4.91c1.26,1.73,20.78,28.57,34.26,47.15
		c12.13,16.66,28.43,22.69,41.53,15.38c15.26-8.51,29.5-17.73,29.63-17.81c1.46-0.96,1.43-2.92,1.35-3.72
		c-0.23-2.33-1.87-5.59-5.69-7.12c-3.75-1.5-91.78-36.75-97.58-39.21c-0.64-0.27-1.24-0.4-1.78-0.4
		C392.28,369.3,391.61,369.58,391.14,370.13z M389.23,376.42h0.02H389.23z"/>
</g>
<g>
	<path class="st2" d="M360.79,382.4v250.01c0,6.69,2.61,9.63,5.04,9.63c3.39,0,3.39-4.46,3.39-6.69V384.66
		c0-5.24-2.33-8.98-5.47-8.98C360.59,375.68,360.79,380.15,360.79,382.4z"/>
	<path class="st2" d="M345.75,377.39v250.01c0,6.69,2.61,9.63,5.04,9.63c3.39,0,3.39-4.46,3.39-6.69V379.64
		c0-5.24-2.33-8.98-5.47-8.98C345.55,370.67,345.75,375.13,345.75,377.39z"/>
	<path class="st2" d="M330.71,372.37v250.01c0,6.69,2.61,9.63,5.04,9.63c3.39,0,3.39-4.46,3.39-6.69V374.63
		c0-5.24-2.33-8.98-5.47-8.98C330.51,365.65,330.71,370.12,330.71,372.37z"/>
</g>
<rect x="606.22" y="273.1" transform="matrix(0.7443 -0.6678 0.6678 0.7443 -19.6945 499.7783)" class="st2" width="73.32" height="5.01"/>
<rect x="585.86" y="374.67" class="st2" width="5.01" height="385.78"/>
<polygon class="st2" points="310.05,297.67 315.07,297.67 315.07,282.92 327.47,250.01 322.77,248.24 310.06,281.99 310.05,282.5 
	"/>
<rect x="562.29" y="334.87" transform="matrix(0.343 -0.9393 0.9393 0.343 78.5943 787.1276)" class="st2" width="79.39" height="5.01"/>
<g id="Eyes_1_">
	<g>
		
			<ellipse transform="matrix(0.9501 -0.3119 0.3119 0.9501 -62.375 178.6005)" class="st0" cx="527.14" cy="284.29" rx="66.99" ry="82.29"/>
		<path class="st2" d="M604.62,239.02c0.46,0,0.92-0.06,1.39-0.2c2.65-0.76,4.17-3.52,3.41-6.17c-0.18-0.61-18.4-61.51-79.11-56.21
			c-2.75,0.24-4.78,2.66-4.54,5.41c0.24,2.74,2.67,4.76,5.41,4.54c52.47-4.56,68.02,46.84,68.66,49.03
			C600.46,237.6,602.46,239.02,604.62,239.02z"/>
	</g>
	<g>
		
			<ellipse transform="matrix(0.9501 -0.3118 0.3118 0.9501 -54.9268 133.7974)" class="st0" cx="390.95" cy="238.66" rx="67" ry="82.29"/>
		<path class="st2" d="M329.56,164.69c1.74,0,3.43-0.91,4.35-2.52c1-1.74,24.68-41.81,72.25-14.78c2.4,1.35,5.45,0.52,6.81-1.88
			c1.36-2.4,0.52-5.44-1.87-6.81c-17.87-10.15-34.89-13.11-50.61-8.76c-23.22,6.42-34.78,26.44-35.26,27.29
			c-1.36,2.4-0.51,5.45,1.89,6.8C327.89,164.48,328.73,164.69,329.56,164.69z"/>
	</g>
</g>
<path class="st5" d="M464.88,305.94c14.24,43.38,54.38,69.13,89.71,57.54c35.3-11.58,52.4-56.14,38.16-99.52
	c-14.24-43.38-54.41-69.15-89.71-57.54C467.74,218.01,450.64,262.56,464.88,305.94z M527.11,293.2c-2.33-6.62-0.4-13.14,4.34-14.59
	c4.74-1.43,10.46,2.76,12.81,9.38c2.33,6.59,0.38,13.11-4.36,14.57C535.19,304.01,529.44,299.8,527.11,293.2z"/>
<g>
	<path class="st2" d="M493.26,314.54c7.25,23.92,27.71,38.14,45.68,31.74c17.98-6.39,26.68-30.97,19.43-54.89
		c-7.25-23.95-27.71-38.16-45.68-31.77C494.72,266.02,486.02,290.6,493.26,314.54z M531.45,278.61c4.74-1.43,10.46,2.76,12.81,9.38
		c2.33,6.59,0.38,13.11-4.36,14.57c-4.71,1.45-10.46-2.76-12.79-9.35C524.78,286.58,526.71,280.06,531.45,278.61z"/>
</g>
<path class="st5" d="M356.44,268.71c7.25,23.92,27.71,38.14,45.71,31.74c17.98-6.39,26.68-30.97,19.43-54.89
	c-7.25-23.95-27.71-38.16-45.68-31.77C357.92,220.19,349.19,244.76,356.44,268.71z M394.65,232.8c4.74-1.45,10.46,2.73,12.81,9.35
	c2.33,6.59,0.38,13.14-4.36,14.57c-4.74,1.45-10.46-2.73-12.79-9.35C387.98,240.75,389.91,234.23,394.65,232.8z"/>
<path class="st5" d="M325.12,249.12c0.75,3.66,1.73,7.32,2.93,10.98c14.24,43.38,54.41,69.15,89.71,57.54
	c35.33-11.58,52.43-56.14,38.19-99.52c-10-30.51-32.85-52.33-57.84-58.55c-10.51-2.58-21.41-2.43-31.87,1
	C333.9,171.2,316.85,209.46,325.12,249.12z M375.89,213.8c17.98-6.39,38.44,7.82,45.68,31.77c7.25,23.92-1.45,48.49-19.43,54.89
	c-18,6.39-38.46-7.82-45.71-31.74C349.19,244.76,357.92,220.19,375.89,213.8z"/>
<g>
	<path class="st2" d="M356.44,268.71c7.25,23.92,27.71,38.14,45.71,31.74c17.98-6.39,26.68-30.97,19.43-54.89
		c-7.25-23.95-27.71-38.16-45.68-31.77C357.92,220.19,349.19,244.76,356.44,268.71z M394.65,232.8c4.74-1.45,10.46,2.73,12.81,9.35
		c2.33,6.59,0.38,13.14-4.36,14.57c-4.74,1.45-10.46-2.73-12.79-9.35C387.98,240.75,389.91,234.23,394.65,232.8z"/>
</g>
<path class="st2" d="M472.79,438.86c0.3,0,0.61-0.06,0.91-0.17c1.29-0.5,1.92-1.96,1.42-3.25c-0.28-0.72-7.13-17.71-27.19-26.52
	c-20.57-9.04-33.21,1.7-33.74,2.16c-1.04,0.91-1.15,2.5-0.24,3.54c0.91,1.04,2.49,1.15,3.53,0.25c0.44-0.38,10.9-9.05,28.43-1.35
	c18.18,7.99,24.48,23.61,24.54,23.76C470.84,438.26,471.79,438.86,472.79,438.86z"/>
<polygon class="st2" points="312.56,353.5 312.56,388.06 238.38,370.78 176.71,299.73 204.77,277.24 252.64,337.38 "/>
</svg>
