<?xml version="1.0" encoding="utf-8"?>
<!-- Generator: Adobe Illustrator 24.0.3, SVG Export Plug-In . SVG Version: 6.00 Build 0)  -->
<svg version="1.1" id="Layer_1" xmlns="http://www.w3.org/2000/svg" xmlns:xlink="http://www.w3.org/1999/xlink" x="0px" y="0px"
	 viewBox="0 0 1038 1080" style="enable-background:new 0 0 1038 1080;" xml:space="preserve">
<style type="text/css">
	.st0{fill:#FFFFFF;}
	.st1{fill:#16AB4B;}
	.st2{fill:#010101;}
	.st3{fill:none;stroke:#010101;stroke-width:3.273;stroke-linecap:round;stroke-linejoin:round;stroke-miterlimit:10;}
	.st4{fill:#ED2E3D;}
	.st5{fill:none;stroke:#010101;stroke-width:3.273;stroke-miterlimit:10;}
</style>
<path class="st0" d="M223.2,431.17c-0.2,1.4-0.6,3.21-1.15,5.27l-15.67,32.37c-2.48,3.21-5.19,6.07-8.12,8.3
	c-16.7,12.76-24.55-8.22-24.55-8.22c0.78-0.75,1.55-1.53,2.31-2.31c-0.5-0.85-1.33-1.08-2.58-0.93c-0.78,0.05-1.73,0.28-2.88,0.58
	h-0.03c-8.9,2.26-29.16,8.78-70.15-12.46c0,0-26.13-4.59-26.13-23.97c0-10.83,7.97-21.99,7.97-21.99
	c-6.37-7.95-16.72-21.84-4.31-34.55c2.21-2.26,4.41-4.21,6.6-5.94c0,0,0.33-0.25,0,0c-7.05-12.61-0.3-30.14,19.31-31.14
	c8.9-0.45,13.36,4.39,14.89,9.85l0.96,9.72l13.36,4.53l15.92-3.82c-10.73-9.48-13.19-24.17-9.53-34.02v-0.03
	c1.66-4.44,4.54-7.9,8.47-9.45c2.01-0.78,3.91-0.88,5.67-0.43h0.02c0.03,0,0.03,0,0.03,0c9.5,2.33,15.77,19.13,17.38,21.81
	c1.93,3.18,5.29,2.66,9.65,13.97c1.45,3.76,5.79,19.21,5.84,19.33c4.61,16.35,10.63,37.43,16.82,48.09
	C203.29,415.72,225.91,412.97,223.2,431.17z"/>
<path class="st0" d="M821.96,274.17c0.81,1.17,1.97,2.6,3.38,4.2l28.47,21.97c3.65,1.76,7.35,3.11,10.97,3.8
	c20.64,3.96,18.29-18.32,18.29-18.32c-1.03-0.33-2.07-0.67-3.09-1.03c0.07-0.99,0.71-1.56,1.9-1.98c0.72-0.3,1.67-0.53,2.84-0.77
	l0.02-0.01c8.97-1.95,30.01-5.17,57.21-42.47c0,0,21.33-15.77,12.68-33.11c-4.84-9.69-16.95-16.12-16.95-16.12
	c2.15-9.96,5.21-27.01-11.57-32.84c-2.98-1.03-5.83-1.8-8.55-2.37c0,0-0.4-0.08,0,0c0.67-14.43-13.19-27.1-31.18-19.25
	c-8.17,3.57-10,9.89-8.93,15.47l6.02,10.34l-8.84,9.23l-17.08,5.52c5.37-13.27-1.49-29.77-9.17-36.95l-0.01-0.02
	c-3.46-3.23-7.59-5.04-11.8-4.67c-2.14,0.2-3.89,0.96-5.26,2.15l-0.02,0.01c-0.02,0.01-0.02,0.01-0.02,0.01
	c-7.46,6.33-5.57,24.16-5.81,27.28c-0.31,3.71-3.55,4.74-2.4,16.81c0.38,4.01,3.39,19.77,3.4,19.91c3.17,16.69,7.2,38.24,6.42,50.54
	C832.87,251.47,811.41,259.1,821.96,274.17z"/>
<g id="Body_1_">
	<g id="Body_4_">
		<g>
			<path class="st1" d="M687.73,210.48l26.63,70.67c0.76,2.03,1.16,4.18,1.16,6.34v350.74c0,13.19-8.25,24.98-20.65,29.49
				l-243.15,88.42c-6.57,2.39-13.93,0.76-18.87-4.19l-64.93-64.93c-7.58-7.58-11.84-17.86-11.84-28.58V268.93
				c0-12.01,7.41-22.78,18.62-27.08l231.03-88.58c6.13-2.35,13.06-1.17,18.07,3.07L687.73,210.48"/>
		</g>
	</g>
	<g id="Body_x5F_Lines_x5F_Detail_2_">
		<path class="st2" d="M473.94,699.22c0,2.22,0,6.67,3.38,6.67c2.4,0,5-2.93,5-9.59l0-248.9c0-2.22,0.2-6.67-2.93-6.67
			c-3.14,0-5.45,3.7-5.45,8.93V699.22z"/>
		<path class="st2" d="M488.91,694.23c0,2.22,0,6.67,3.38,6.67c2.4,0,5-2.93,5-9.59l0-248.9c0-2.22,0.2-6.67-2.93-6.67
			c-3.14,0-5.45,3.7-5.45,8.93V694.23z"/>
		<path class="st2" d="M503.89,689.24c0,2.22,0,6.67,3.38,6.67c2.4,0,5-2.93,5-9.59l0-248.9c0-2.22,0.2-6.67-2.93-6.67
			c-3.14,0-5.45,3.7-5.45,8.93"/>
	</g>
</g>
<g>
	<path class="st2" d="M717.12,356.01c-1.19,0-2.24-0.84-2.46-2.05c-0.25-1.36,0.65-2.67,2.01-2.92c19.53-3.58,46.3-8.74,53.36-12.11
		c18.49-8.79,52.42-62.49,52.77-63.03c0.74-1.18,2.28-1.52,3.46-0.79c1.17,0.74,1.52,2.29,0.79,3.46
		c-1.42,2.26-35.06,55.48-54.85,64.89c-5.85,2.79-22.7,6.66-54.61,12.51C717.43,356,717.27,356.01,717.12,356.01z"/>
	<g>
		<path class="st2" d="M717.13,388.06c3.61-0.58,7.45-1.18,11.41-1.83c22.52-3.66,48.67-8.4,57.27-12.49
			c36.38-17.33,67.17-74.02,67.17-74.02"/>
		<path class="st2" d="M717.12,390.56c-1.21,0-2.28-0.88-2.47-2.11c-0.22-1.37,0.71-2.65,2.08-2.87l2.59-0.41
			c2.83-0.45,5.78-0.92,8.81-1.42c11.57-1.88,46.77-7.61,56.6-12.28c35.24-16.78,65.74-72.39,66.04-72.95
			c0.66-1.21,2.18-1.67,3.4-1.01c1.22,0.66,1.67,2.18,1.01,3.4c-1.27,2.34-31.6,57.61-68.3,75.08c-7.15,3.4-25.56,7.43-57.94,12.7
			c-3.03,0.5-5.99,0.97-8.83,1.42l-2.58,0.41C717.39,390.55,717.26,390.56,717.12,390.56z"/>
	</g>
	<path class="st2" d="M879.43,287.18c-0.07,0-0.14,0-0.21-0.01c-1.38-0.11-2.41-1.32-2.29-2.71c0.3-3.67,3.83-4.35,7.92-5.14
		c9.46-1.83,29.14-5.64,55.38-40.25c0.15-0.2,0.34-0.38,0.54-0.53c0.2-0.14,19.8-14.38,12.48-29.75c-0.6-1.25-0.06-2.75,1.19-3.34
		c1.25-0.59,2.75-0.06,3.34,1.19c8.65,18.17-10.88,33.6-13.78,35.76c-27.29,35.87-48.16,39.91-58.2,41.85
		c-1.47,0.28-3.26,0.63-3.92,0.95C881.64,286.34,880.61,287.18,879.43,287.18z"/>
	<path class="st2" d="M832.95,252.99c-0.07,0-0.14,0-0.21-0.01c-1.38-0.12-2.41-1.33-2.29-2.71c1.01-12.14-2.8-34.43-5.57-50.71
		c-1.41-8.27-2.63-15.41-2.94-19.52c-0.68-8.97,0.84-12.39,1.95-14.9c0.42-0.94,0.69-1.55,0.77-2.3c0.04-0.46,0.03-1.3,0.03-2.41
		c-0.02-7.69-0.06-28.11,13.95-29.08c6.19-0.41,12.32,2.99,16.85,9.37c6.57,9.25,8.01,22.06,3.76,32.91
		c0.84,2.5,2.38,8.9-1.55,13.92c-0.85,1.09-2.43,1.28-3.52,0.43c-1.09-0.85-1.28-2.43-0.43-3.52c3.02-3.85,0.54-9.81,0.51-9.87
		c-0.28-0.63-0.28-1.35-0.01-1.99c4.91-11.51,1.54-22.8-2.85-28.97c-3.5-4.92-8.04-7.61-12.42-7.27
		c-9.33,0.64-9.29,17.66-9.28,24.06c0,1.33,0,2.34-0.06,2.91c-0.16,1.56-0.68,2.73-1.18,3.85c-0.95,2.13-2.12,4.77-1.54,12.48
		c0.3,3.87,1.49,10.91,2.88,19.05c2.98,17.46,6.68,39.19,5.63,51.96C835.33,251.99,834.24,252.99,832.95,252.99z"/>
	<path class="st2" d="M875.49,287.43c-27.4,0-44.08-34.34-44.81-35.87c-0.59-1.25-0.06-2.74,1.19-3.34c1.25-0.6,2.74-0.07,3.34,1.18
		c0.17,0.36,17.59,36.19,43.9,32.78c1.36-0.16,2.63,0.79,2.81,2.17c0.18,1.37-0.79,2.63-2.17,2.81
		C878.3,287.34,876.88,287.43,875.49,287.43z"/>
	<path class="st2" d="M868.85,306.81c-1.72,0-3.55-0.21-5.5-0.62c-3.58-0.75-7.46-2.17-11.51-4.22
		c-11.72-5.93-22.86-16.15-28.83-23.1c-1.5-1.75-2.67-3.27-3.49-4.5c-3.11-4.64-3.96-9.15-2.51-13.4
		c2.96-8.71,14.64-12.7,15.14-12.87c1.2-0.4,2.51,0.16,3.06,1.3c0.17,0.36,17.62,36.2,43.9,32.78c0.41-0.05,0.82,0,1.2,0.14
		c0.99,0.37,2,0.73,3,1.06c0.95,0.32,1.61,1.17,1.7,2.16c0.04,0.47,0.93,11.67-5.86,17.67C876.44,305.61,873,306.81,868.85,306.81z
		 M831.76,253.66c-2.99,1.35-8.46,4.37-10,8.93c-0.93,2.74-0.29,5.67,1.93,8.99c0,0,0,0.01,0.01,0.01c0.71,1.07,1.76,2.42,3.12,4.02
		c5.67,6.59,16.22,16.29,27.29,21.89c3.66,1.85,7.12,3.12,10.28,3.79c5.01,1.05,8.86,0.45,11.42-1.81
		c3.65-3.21,4.19-9.09,4.23-11.91c-0.31-0.11-0.61-0.22-0.92-0.33c-1.23,0.13-2.45,0.2-3.64,0.2
		C851.64,287.44,835.92,261.42,831.76,253.66z"/>
	<path class="st2" d="M888.44,164.91c-0.01,0-0.02,0-0.02,0c-4.86-0.05-10.11-5.97-11.46-12.93c-1.57-8.11,2.41-14.99,10.67-18.41
		c8.95-3.72,17.98-3.06,24.77,1.8c6.4,4.58,10.04,12.45,9.51,20.52c-0.09,1.38-1.26,2.4-2.67,2.34c-1.38-0.09-2.43-1.29-2.34-2.67
		c0.42-6.36-2.43-12.53-7.43-16.11c-5.42-3.88-12.5-4.33-19.93-1.25c-8.18,3.39-8.31,9.49-7.67,12.82c0.99,5.12,4.62,8.85,6.58,8.87
		c1.38,0.01,2.5,1.15,2.48,2.53C890.94,163.8,889.82,164.91,888.44,164.91z"/>
	<path class="st2" d="M857.56,178.92c-0.94,0-1.84-0.53-2.26-1.43c-0.6-1.25-0.06-2.74,1.19-3.34c2.52-1.2,5.8-2.07,8.98-2.92
		c2.95-0.79,6-1.6,8.1-2.6c3.23-1.54,6.7-6.48,7.77-8.25c0.71-1.19,2.25-1.57,3.44-0.86s1.57,2.25,0.86,3.44
		c-0.47,0.79-4.75,7.74-9.91,10.2c-2.52,1.2-5.8,2.07-8.97,2.92c-2.95,0.79-6.01,1.6-8.11,2.6
		C858.29,178.84,857.92,178.92,857.56,178.92z"/>
	<path class="st2" d="M938.87,193.79c-0.19,0-0.38-0.02-0.58-0.07c-1.35-0.32-2.18-1.67-1.87-3.02c3-12.75,3.94-25.22-9.38-30.12
		c-14.61-5.37-27.4-4.7-35.08,1.84c-3.21,2.74-4.74,6.05-4.31,9.32c0.54,4.08,4.01,7.93,9.54,10.56c6.55,3.12,10.86,3.57,14.66,3.96
		c2.68,0.28,5.2,0.54,7.97,1.66c1.28,0.52,1.9,1.98,1.39,3.26c-0.52,1.28-1.97,1.9-3.26,1.39c-2.11-0.85-4.1-1.06-6.61-1.32
		c-4-0.41-8.97-0.93-16.3-4.42c-7.09-3.38-11.59-8.64-12.35-14.44c-0.66-5.02,1.48-9.91,6.03-13.79c9.1-7.76,23.7-8.75,40.06-2.74
		c19.32,7.11,14.56,27.34,12.52,35.97C941.03,193.01,940,193.79,938.87,193.79z"/>
	<path class="st2" d="M942.24,243.1c-0.78,0-1.55-0.36-2.04-1.05c-0.8-1.13-0.54-2.69,0.59-3.5c0.2-0.14,19.8-14.39,12.47-29.77
		c-4.63-9.72-14.32-13.53-19.68-14.93c-7.96-2.08-16.79-1.67-22.49,1.05c-2.74,1.3-4.16,3.46-4.35,6.61
		c-0.32,5.36,3.16,11.63,5.1,12.85c8.49,5.37,14.75,5.67,19.79,5.91c4.06,0.19,7.56,0.36,10.27,3.31c0.94,1.02,0.87,2.61-0.15,3.54
		s-2.61,0.87-3.54-0.15c-1.26-1.37-3.1-1.52-6.82-1.69c-5.32-0.26-12.61-0.6-22.22-6.68c-3.77-2.38-7.83-10.5-7.42-17.39
		c0.3-5,2.79-8.74,7.2-10.84c6.81-3.24,16.74-3.77,25.92-1.37c10.72,2.8,18.86,9.06,22.94,17.62c9.13,19.19-13.14,35.33-14.09,36.01
		C943.25,242.95,942.74,243.1,942.24,243.1z"/>
</g>
<g>
	<g>
		<polygon class="st2" points="700.34,798.68 701.29,796.39 701.28,796.38 701.3,796.38 701.28,796.38 699.51,794.6 702.26,794.05 
			703.81,796.38 701.31,796.38 703.05,798.15 701.3,796.39 		"/>
		<g>
			<path class="st0" d="M722.69,817.16c0.03,0.03,0.03,0.03,0.03,0.05c0.35,0.68,0.7,1.35,1.05,2.06
				c6.22,12.89,11.68,28.16,4.61,42.98c-7.05,14.79-27.91,32.62-58.6,37.23c-55.19,8.32-125.29-75.92-127.32-80.36
				c-1.48-3.18-7.9-26.78,5.99-43.18c0,0,0,0,0-0.03"/>
			<path class="st2" d="M662.05,902.56c-54.9,0-119.74-77.74-121.87-82.39c-1.78-3.84-8.2-28.65,6.36-45.84l1.9,1.61l2.52-0.01v0.92
				l-0.59,0.73c-12.84,15.16-6.96,37.63-5.63,40.5c1.08,2.02,18.65,23.83,43.53,44.48c21.72,18.02,53.43,38.65,81.15,34.45
				c29.5-4.43,49.73-21.19,56.71-35.83c6.61-13.85,1.38-28.4-4.61-40.81c-0.33-0.66-0.67-1.32-1.02-1.99l-0.28-0.54l0-0.62h2.44
				l1.82-1.82l0.31,0.75l0.16-0.09c0.36,0.69,0.71,1.38,1.07,2.09c6.52,13.51,12.15,29.42,4.63,45.18
				c-7.54,15.84-29.17,33.93-60.49,38.64C667.49,902.36,664.78,902.56,662.05,902.56z"/>
		</g>
		<g>
			<path class="st0" d="M568.72,749.26c-11.91,6.29-17.7,16.45-20.26,26.65c0,0.03,0,0.03,0,0.03c-3.89,15.47-0.3,31.04,0.78,33.4
				c1.5,3.23,36.81,45.66,75.62,65.52c14.52,7.45,29.51,11.73,43.43,9.63c36.06-5.44,65.34-36.08,54.43-67.27
				c0-0.03,0-0.03-0.03-0.05c-0.85-2.46-1.96-4.91-3.33-7.37c-1.96-3.49-5.06-7.25-9-11.16c-17.5-17.45-51.17-37.91-70.33-48.92"/>
			<path class="st2" d="M661.04,887.52c-11.28,0-23.8-3.49-37.33-10.44c-39.18-20.04-74.96-62.84-76.75-66.69
				c-1.33-2.9-4.91-18.88-1.01-34.76l0.07-0.33c3.24-12.92,10.48-22.43,21.52-28.26l2.34,4.43c-9.65,5.1-16.02,13.44-18.93,24.78
				l-0.07,0.29c-3.64,14.5-0.35,29.6,0.63,31.75c1.23,2.31,35.32,44.29,74.48,64.33c15.71,8.06,29.8,11.21,41.91,9.38
				c20.5-3.09,39.05-14.66,48.41-30.19c6.46-10.72,7.91-22.22,4.2-33.28l-0.01,0l-0.19-0.55c-0.81-2.34-1.87-4.69-3.15-6.97
				c-1.75-3.12-4.64-6.69-8.58-10.61c-17.31-17.26-51.17-37.81-69.81-48.52l2.5-4.35c18.86,10.84,53.14,31.66,70.85,49.32
				c4.27,4.24,7.44,8.18,9.42,11.71c1.32,2.36,2.44,4.79,3.32,7.23l0.33,0.33l0.01,0.64c4.27,12.55,2.68,25.56-4.6,37.64
				c-10.11,16.78-30.02,29.25-51.96,32.56C666.19,887.34,663.65,887.52,661.04,887.52z"/>
		</g>
		<g>
			<path class="st0" d="M629.57,733.77c6.34,4.16,10.31,9.78,10.46,15.95c0.03,0.25,0.03,0.5,0.03,0.78
				c-0.35,12.61-16.92,28.18-36.63,27.66c-12.94-0.35-24.02-7.57-29.96-16.07c-2.98-4.19-4.66-8.68-4.74-12.81c0-0.23,0-0.45,0-0.68
				c0.2-7.6,6.17-14.19,15.22-18.1"/>
			<path class="st2" d="M604.41,780.67c-0.35,0-0.71,0-1.06-0.01c-15.01-0.41-26.34-9.12-31.95-17.14
				c-3.31-4.64-5.11-9.56-5.19-14.21v-0.72c0.22-8.37,6.48-15.97,16.73-20.4l1.99,4.6c-8.42,3.64-13.54,9.57-13.71,15.87l0,0.61
				c0.06,3.53,1.58,7.58,4.27,11.36c4.92,7.04,14.84,14.66,27.99,15.02c18.01,0.56,33.73-13.46,34.06-25.22c0-0.12,0-0.29-0.01-0.47
				c-0.14-5.29-3.45-10.23-9.34-14.09l2.75-4.19c7.31,4.79,11.42,11.18,11.59,17.98c0.02,0.15,0.03,0.48,0.03,0.84
				C642.17,764.42,625.17,780.67,604.41,780.67z"/>
		</g>
		<path class="st2" d="M627.37,874.95l-5.01-0.19c0.02-0.61,0.64-15.12,7.51-33.02c5.6-14.6,32.57-36.7,54.45-44.64
			c11.44-4.15,20.61-4.37,27.26-0.66l-2.44,4.38c-5.25-2.93-13.24-2.58-23.11,1c-22.19,8.04-46.85,29.66-51.47,41.72
			C627.98,860.67,627.37,874.81,627.37,874.95z"/>
		<path class="st2" d="M615.35,798.69l-3.35-3.73c12.5-11.26,28.42-21.51,40.56-26.12l1.78,4.69
			C642.73,777.93,627.43,787.81,615.35,798.69z"/>
		<path class="st2" d="M626.76,807.11l-3.35-3.73c12.5-11.25,28.42-21.51,40.56-26.13l1.78,4.69
			C654.14,786.36,638.84,796.24,626.76,807.11z"/>
		<path class="st2" d="M567.09,833.18l-10.35-10.95l25.53-26.83l10.9,10.37L567.09,833.18z M563.65,822.24l3.45,3.65l18.98-19.94
			l-3.63-3.46L563.65,822.24z"/>
		<path class="st2" d="M584.52,849.14l-11.3-9.95l25.96-27.27l10.89,10.37L584.52,849.14z M580.45,838.87l3.76,3.32l18.77-19.72
			l-3.63-3.46L580.45,838.87z"/>
	</g>
	<g>
		<polygon class="st2" points="534.84,848.82 535.81,846.54 535.8,846.52 535.81,846.52 535.8,846.52 534.04,844.73 536.79,844.2 
			538.33,846.52 535.83,846.52 537.55,848.32 535.81,846.54 		"/>
		<g>
			<path class="st0" d="M557.23,867.36v0.03c0.38,0.65,0.73,1.33,1.05,2.03c6.22,12.89,11.68,28.16,4.61,42.98
				c-7.05,14.79-27.91,32.62-58.6,37.23c-55.19,8.32-125.29-75.92-127.32-80.36c-1.48-3.18-7.9-26.8,5.99-43.2v-0.03"/>
			<path class="st2" d="M496.57,952.7c-54.91,0-119.74-77.74-121.87-82.39c-1.78-3.84-8.21-28.67,6.36-45.87l1.9,1.61l2.52-0.01
				v0.92l-0.59,0.73c-12.85,15.17-6.96,37.66-5.63,40.53c1.08,2.02,18.65,23.83,43.53,44.48c21.72,18.02,53.42,38.65,81.15,34.45
				c29.5-4.43,49.73-21.19,56.71-35.83c6.61-13.85,1.38-28.4-4.61-40.81c-0.31-0.67-0.63-1.28-0.97-1.87l-0.34-0.58v-0.67l2.53-0.01
				l2.15-1.24c0.41,0.72,0.8,1.46,1.16,2.23c6.49,13.45,12.12,29.35,4.6,45.11c-7.54,15.84-29.17,33.93-60.49,38.64
				C502,952.51,499.3,952.7,496.57,952.7z"/>
		</g>
		<path class="st2" d="M439.62,814.24c-2.02,0-4.04-0.24-6.05-0.74c-9.11-2.24-16.13-9.3-18.33-18.42l4.88-1.18
			c1.76,7.29,7.38,12.93,14.66,14.73c5.2,1.29,10.59,0.47,15.17-2.3c4.59-2.77,7.82-7.16,9.1-12.36l0.46-1.78l4.86,1.25l-0.45,1.76
			c-1.6,6.48-5.64,11.97-11.37,15.43C448.57,813.02,444.13,814.24,439.62,814.24z"/>
		<g>
			<path class="st0" d="M474.54,799.86c19.16,11.01,52.83,31.47,70.33,48.92c3.94,3.91,7.05,7.67,9,11.16
				c1.38,2.48,2.51,4.94,3.36,7.42v0.03c10.88,31.19-18.38,61.81-54.43,67.25c-13.92,2.11-28.91-2.18-43.43-9.63
				c-38.81-19.86-74.12-62.28-75.62-65.52c-1.08-2.36-4.66-17.95-0.78-33.42v-0.03c2.56-10.2,8.35-20.33,20.26-26.63"/>
			<path class="st2" d="M495.56,937.67c-11.28,0-23.8-3.49-37.33-10.44c-39.18-20.05-74.96-62.84-76.75-66.69
				c-1.33-2.91-4.91-18.89-1.01-34.79l0.08-0.33c3.23-12.9,10.47-22.4,21.52-28.23l2.34,4.43c-9.66,5.11-16.03,13.43-18.93,24.76
				l-0.07,0.29c-3.65,14.51-0.36,29.62,0.63,31.77c1.23,2.31,35.31,44.29,74.48,64.33c15.71,8.06,29.81,11.21,41.91,9.38
				c20.5-3.1,39.04-14.65,48.4-30.17c6.56-10.88,7.96-22.56,4.05-33.78l-0.14-0.43c-0.77-2.15-1.76-4.33-3.04-6.63
				c-1.74-3.11-4.63-6.68-8.58-10.6c-17.3-17.25-51.17-37.81-69.81-48.52l2.5-4.35c18.86,10.84,53.14,31.66,70.85,49.32
				c4.27,4.24,7.44,8.18,9.42,11.71c1.51,2.71,2.66,5.27,3.54,7.83l0.14,0.42c4.25,12.55,2.65,25.54-4.63,37.61
				c-10.11,16.76-30.01,29.22-51.94,32.53C500.7,937.48,498.16,937.67,495.56,937.67z"/>
		</g>
		<g>
			<path class="st0" d="M474.57,800.64c-0.35,12.61-16.92,28.18-36.63,27.66c-12.94-0.35-24.02-7.57-29.96-16.07
				c-2.98-4.19-4.66-8.68-4.74-12.81v-0.68c0.2-7.6,6.17-14.19,15.22-18.1c-0.13,0.43-0.23,0.85-0.33,1.28l-0.45,1.86
				c-0.9,3.66-0.85,7.32,0,10.73c1.91,7.9,8.05,14.49,16.5,16.57c12.08,2.98,24.32-4.39,27.3-16.5l0.45-1.76v-0.05
				c0.68-2.76,1.43-5.72,2.16-8.85c6.34,4.16,10.31,9.78,10.46,15.95C474.57,800.11,474.57,800.36,474.57,800.64z"/>
			<path class="st2" d="M438.93,830.81c-0.35,0-0.71,0-1.06-0.01c-15.01-0.41-26.34-9.12-31.95-17.14
				c-3.31-4.64-5.11-9.56-5.19-14.2l0-0.72c0.22-8.37,6.48-15.97,16.73-20.4l4.91-2.12l-1.51,5.13c-0.11,0.38-0.2,0.76-0.29,1.14
				l-0.46,1.88c-0.79,3.19-0.79,6.4,0,9.53c1.76,7.31,7.38,12.95,14.67,14.75c5.2,1.29,10.59,0.47,15.17-2.3
				c4.59-2.77,7.82-7.16,9.1-12.36l1.02-4.09c0.52-2.08,1.06-4.26,1.58-6.53l0.81-3.5l3.01,1.97c7.31,4.79,11.42,11.18,11.59,17.98
				c0.02,0.15,0.03,0.48,0.03,0.84l0,0.07C476.69,814.57,459.69,830.81,438.93,830.81z M414.8,785.38
				c-5.62,3.58-8.93,8.38-9.06,13.42l0,0.61c0.06,3.53,1.58,7.58,4.27,11.36c4.92,7.04,14.85,14.66,27.99,15.02
				c17.94,0.58,33.7-13.44,34.06-25.19c0-0.17,0-0.34-0.01-0.5c-0.11-4.34-2.36-8.44-6.41-11.9c-0.24,0.98-0.48,1.95-0.71,2.89
				l-1.02,4.11c-1.6,6.48-5.64,11.97-11.37,15.43c-5.73,3.46-12.46,4.48-18.96,2.88c-9.11-2.24-16.13-9.3-18.34-18.42
				C414.45,791.94,414.3,788.62,414.8,785.38z"/>
		</g>
		<path class="st2" d="M461.88,925.1l-5.01-0.19c0.02-0.61,0.64-15.12,7.51-33.02c5.6-14.6,32.57-36.71,54.45-44.64
			c11.44-4.15,20.61-4.37,27.26-0.66l-2.44,4.38c-5.25-2.93-13.24-2.58-23.1,1c-22.19,8.04-46.85,29.66-51.48,41.72
			C462.51,910.76,461.89,924.96,461.88,925.1z"/>
		<path class="st2" d="M449.86,848.83l-3.35-3.73c12.5-11.26,28.43-21.51,40.56-26.12l1.78,4.69
			C477.25,828.08,461.94,837.96,449.86,848.83z"/>
		<path class="st2" d="M461.28,857.26l-3.36-3.73c12.5-11.25,28.42-21.51,40.56-26.13l1.78,4.69
			C488.66,836.51,473.35,846.38,461.28,857.26z"/>
		<path class="st2" d="M401.6,883.33l-10.35-10.95l25.53-26.83l10.9,10.37L401.6,883.33z M398.16,872.39l3.45,3.65l18.98-19.94
			l-3.63-3.46L398.16,872.39z"/>
		<path class="st2" d="M419.03,899.29l-11.29-9.95l25.96-27.27l10.89,10.37L419.03,899.29z M414.96,889.01l3.76,3.32l18.77-19.72
			l-3.63-3.46L414.96,889.01z"/>
	</g>
	<g>
		<path class="st2" d="M469.38,750.24c-0.83,12.76-3.06,24.07-5.29,33.67c-0.73,3.13-1.48,6.09-2.16,8.85v0.05l-0.45,1.76
			c-2.98,12.11-15.22,19.48-27.3,16.5c-8.45-2.08-14.59-8.68-16.5-16.57c-0.85-3.41-0.9-7.07,0-10.73l0.45-1.86
			c0.1-0.43,0.2-0.85,0.33-1.28c2.63-10.66,5.59-23.04,5.99-37.06l16.87,16.87L469.38,750.24z"/>
		<path class="st2" d="M439.62,814.24c-2.02,0-4.04-0.24-6.05-0.74c-9.11-2.24-16.13-9.3-18.34-18.42c-0.96-3.86-0.97-7.99,0-11.92
			l0.45-1.85c0.11-0.45,0.22-0.92,0.36-1.39c2.3-9.31,5.48-22.21,5.89-36.42c0.03-1,0.65-1.89,1.58-2.26
			c0.93-0.36,1.99-0.15,2.7,0.56l15.75,15.75l26.56-9.66c0.8-0.29,1.68-0.16,2.36,0.35c0.68,0.51,1.05,1.32,1,2.17
			c-0.88,13.59-3.32,25.35-5.35,34.08c-0.53,2.3-1.08,4.51-1.6,6.61l-0.52,2.11c-0.01,0.09-0.03,0.17-0.05,0.24l-0.45,1.76
			c-1.6,6.48-5.64,11.97-11.37,15.43C448.57,813.02,444.13,814.24,439.62,814.24z M426.65,749.32c-0.96,12.45-3.69,23.53-5.76,31.91
			c-0.14,0.49-0.23,0.87-0.32,1.25l-0.46,1.88c-0.79,3.19-0.79,6.4,0,9.53c1.76,7.31,7.38,12.95,14.67,14.75
			c5.2,1.29,10.59,0.47,15.17-2.3c4.59-2.77,7.82-7.16,9.1-12.36l0.41-1.6c0.01-0.07,0.02-0.14,0.04-0.2l0.57-2.28
			c0.52-2.08,1.06-4.26,1.58-6.53c1.79-7.71,3.91-17.82,4.94-29.42l-24.4,8.88c-0.91,0.34-1.94,0.11-2.63-0.58L426.65,749.32z"/>
	</g>
	<g>
		<path class="st2" d="M635.21,689.94c-0.03,16.97-2.83,31.74-5.64,43.83c-0.73,3.13-1.48,6.09-2.16,8.85v0.05l-0.45,1.76
			c-2.98,12.11-15.22,19.48-27.3,16.5c-8.45-2.08-14.59-8.68-16.5-16.57c-0.85-3.41-0.9-7.07,0-10.73l0.45-1.86
			c0.1-0.43,0.2-0.85,0.33-1.28c1.76-7.12,3.66-15.02,4.86-23.67L635.21,689.94z"/>
		<path class="st2" d="M605.11,764.1c-2.02,0-4.05-0.24-6.05-0.74c-9.11-2.24-16.13-9.3-18.33-18.42c-0.96-3.86-0.97-7.99,0-11.92
			l0.45-1.85c0.11-0.45,0.22-0.92,0.36-1.39c1.85-7.53,3.64-15.07,4.79-23.31c0.13-0.92,0.75-1.69,1.63-2.01l46.41-16.88
			c0.77-0.28,1.63-0.17,2.3,0.3c0.67,0.47,1.07,1.24,1.07,2.06c-0.03,17.7-3.06,33.02-5.71,44.39c-0.53,2.29-1.08,4.49-1.6,6.58
			l-0.53,2.13c-0.01,0.09-0.03,0.17-0.05,0.24l-0.45,1.76c-1.6,6.48-5.64,11.97-11.37,15.43
			C614.06,762.87,609.62,764.1,605.11,764.1z M591.07,708.66c-1.18,7.88-2.89,15.11-4.7,22.42c-0.14,0.49-0.23,0.87-0.32,1.25
			l-0.46,1.87c-0.79,3.19-0.79,6.4,0,9.53c1.76,7.31,7.38,12.95,14.67,14.75c5.2,1.28,10.59,0.47,15.17-2.3
			c4.59-2.77,7.82-7.16,9.1-12.36l0.41-1.6c0.01-0.07,0.02-0.14,0.04-0.2l0.57-2.31c0.51-2.07,1.05-4.24,1.58-6.51
			c2.4-10.33,5.13-23.99,5.53-39.67L591.07,708.66z"/>
	</g>
</g>
<path class="st2" d="M470.23,752.6l-1.71-4.71l228.9-83.23c9.32-3.39,17.2-14.64,17.2-24.56V282.47h5.01v357.62
	c0,12.03-9.2,25.16-20.5,29.27L470.23,752.6z"/>
<path class="st2" d="M422.67,745.34l-54.19-54.19c-8.23-8.23-14.92-24.38-14.92-36.02V491.91h5.01v163.23
	c0,10.31,6.16,25.18,13.45,32.47l54.19,54.19L422.67,745.34z"/>
<path class="st2" d="M358.58,456.43h-5.01V267.15c0-12.01,9.13-25.28,20.34-29.57l36.43-13.96c10.06-3.86,18.35-7.03,18.71-7.17
	l0.02,0.06c1.45-0.63,5.64-2.24,18.75-7.27l149.39-57.29c9.75-3.74,23.09-5.19,28.62-0.51l7.37,6.24l-3.24,3.82l-7.37-6.24
	c-2.95-2.5-13.36-2.56-23.58,1.37l-149.39,57.29c-10.06,3.86-18.34,7.03-18.7,7.18l-0.03-0.07c-1.48,0.66-5.65,2.26-18.75,7.28
	l-36.43,13.96c-9.28,3.56-17.12,14.95-17.12,24.89V456.43z"/>
<g>
	<g>
		<path class="st2" d="M206.53,467.29c0,0,52.15,37.96,92.45,37.96c9.53,0,35.18-6.97,57.09-13.34c13.44-3.91,25.47-7.57,31.52-9.28
			c15.92-4.49,8.42-36.73-8.37-32.42c-4.84,1.23-13.36,3.59-23.14,6.22c-21.59,5.84-49.42,13.11-57.79,13.11
			c-21.44,0-76.07-34.63-76.07-34.63"/>
		<path class="st2" d="M298.98,507.76c-40.64,0-91.77-36.87-93.92-38.44c-1.12-0.82-1.37-2.38-0.55-3.5
			c0.82-1.12,2.38-1.37,3.5-0.55c0.52,0.37,51.97,37.48,90.97,37.48c10.84,0,45.13-9.96,56.39-13.24c6.49-1.89,12.65-3.72,17.97-5.3
			c5.7-1.69,10.44-3.1,13.57-3.98c6.58-1.85,8.1-9.94,6.21-16.97c-1.76-6.52-6.54-12.34-13.28-10.6c-3.19,0.81-7.98,2.11-13.67,3.65
			l-9.45,2.56c-22.71,6.14-49.87,13.2-58.45,13.2c-21.91,0-75.16-33.58-77.42-35.01c-1.17-0.74-1.52-2.29-0.78-3.46
			c0.74-1.17,2.29-1.52,3.46-0.78c0.54,0.34,54.26,34.24,74.73,34.24c9.01,0,43.98-9.46,57.14-13.02l9.44-2.56
			c5.72-1.55,10.54-2.86,13.74-3.67c9.99-2.57,17.04,5.54,19.36,14.16c2.53,9.41,0.02,20.37-9.69,23.11
			c-3.11,0.88-7.83,2.28-13.5,3.96c-5.33,1.58-11.5,3.41-17.99,5.31C325.22,503.49,306.86,507.76,298.98,507.76z"/>
	</g>
	<path class="st2" d="M152.08,469.98c-11.88,0-28.73-3.14-52.38-15.34c-3.55-0.7-27.81-6.25-27.81-26.37c0-1.39,1.12-2.51,2.51-2.51
		c1.38,0,2.51,1.12,2.51,2.51c0,17.08,23.81,21.46,24.05,21.5c0.25,0.04,0.49,0.13,0.72,0.24c38.56,19.97,57.97,14.95,67.3,12.54
		c4.03-1.05,7.51-1.94,9.36,1.24c0.7,1.2,0.29,2.73-0.91,3.43c-1.1,0.64-2.49,0.35-3.25-0.64c0,0-0.01,0-0.01,0
		c-0.74,0-2.5,0.46-3.94,0.83C166.17,468.46,160.32,469.97,152.08,469.98z"/>
	<path class="st2" d="M203.45,416.72c-0.86,0-1.7-0.45-2.17-1.25c-6.44-11.08-12.44-32.3-17.25-49.34
		c-2.25-7.95-4.19-14.82-5.58-18.44c-2.78-7.21-4.98-9.09-6.75-10.61c-0.93-0.8-1.9-1.63-2.71-2.96c-0.3-0.5-0.74-1.41-1.31-2.61
		c-2.74-5.79-10.02-21.17-18.72-17.74c-4.09,1.62-7.04,5.95-8.08,11.9c-1.31,7.46,0.5,19.1,9.88,27.38c0.52,0.46,0.83,1.11,0.85,1.8
		c0,0.06,0.3,6.5,4.7,8.69c1.24,0.62,1.74,2.12,1.13,3.36c-0.62,1.24-2.12,1.75-3.36,1.13c-5.71-2.84-7.07-9.29-7.39-11.91
		c-8.5-7.97-12.71-20.15-10.75-31.32c1.35-7.71,5.43-13.43,11.18-15.71c13.07-5.15,21.81,13.31,25.1,20.26
		c0.47,1,0.83,1.76,1.07,2.17c0.38,0.63,0.9,1.07,1.67,1.74c2.08,1.78,4.93,4.22,8.17,12.61c1.48,3.84,3.45,10.81,5.73,18.88
		c4.49,15.89,10.64,37.65,16.76,48.18c0.7,1.2,0.29,2.73-0.91,3.43C204.31,416.61,203.88,416.72,203.45,416.72z"/>
	<path class="st2" d="M176.17,467.56c-1.05,0-2.04-0.67-2.38-1.73c-0.43-1.31,0.29-2.73,1.6-3.16
		c25.22-8.25,25.55-48.07,25.55-48.47c0-1.38,1.12-2.5,2.51-2.5c0,0,0,0,0,0c1.38,0,2.51,1.12,2.51,2.51
		c0,1.79-0.33,43.85-29.01,53.23C176.69,467.53,176.42,467.56,176.17,467.56z"/>
	<path class="st2" d="M188.18,482.22c-1.28,0-2.54-0.18-3.78-0.54c-8.7-2.5-12.71-12.99-12.88-13.44c-0.35-0.93-0.11-1.99,0.6-2.68
		c0.76-0.74,1.52-1.49,2.25-2.25c0.28-0.29,0.63-0.51,1.02-0.64c25.22-8.25,25.55-48.07,25.55-48.47c0-1.27,0.95-2.33,2.2-2.49
		c0.52-0.06,12.78-1.48,19.2,5.11c3.14,3.22,4.32,7.66,3.49,13.18c-0.21,1.47-0.62,3.34-1.21,5.55
		c-2.41,8.85-8.07,22.86-16.11,33.26c-2.78,3.59-5.67,6.54-8.59,8.76C195.89,480.66,191.95,482.22,188.18,482.22z M176.86,467.93
		c1.24,2.53,4.26,7.6,8.94,8.94c3.29,0.93,7.02-0.16,11.09-3.27c2.58-1.96,5.16-4.6,7.66-7.84c7.59-9.81,12.95-23.1,15.24-31.5
		c0.53-1.99,0.91-3.71,1.09-4.96c0,0,0-0.01,0-0.01c0.59-3.95-0.11-6.87-2.12-8.94c-3.36-3.46-9.59-3.85-12.87-3.77
		c-0.44,9.24-3.75,42.11-28.35,50.67C177.31,467.47,177.09,467.7,176.86,467.93z"/>
	<path class="st2" d="M84.66,368.31c-0.88,0-1.73-0.46-2.19-1.28c-3.95-7.06-4.04-15.72-0.23-22.61
		c4.04-7.31,11.91-11.78,21.59-12.27c8.94-0.41,15.48,4.05,17.55,12.05c1.77,6.87-0.42,14.47-4.79,16.6
		c-1.24,0.61-2.75,0.09-3.35-1.15c-0.61-1.24-0.09-2.74,1.16-3.35c1.76-0.86,3.43-5.79,2.13-10.84c-0.85-3.29-3.6-8.78-12.43-8.29
		c-8.03,0.41-14.23,3.85-17.46,9.69c-2.97,5.38-2.89,12.18,0.22,17.74c0.68,1.21,0.24,2.74-0.96,3.41
		C85.49,368.21,85.07,368.31,84.66,368.31z"/>
	<path class="st2" d="M131.6,362.78c-5.71,0-12.57-4.44-13.33-4.95c-1.15-0.77-1.47-2.32-0.7-3.47c0.77-1.15,2.32-1.47,3.47-0.7
		c1.73,1.14,7,4.11,10.56,4.11c2.33,0,5.43-0.58,8.43-1.14c3.23-0.6,6.57-1.22,9.36-1.22c1.38,0,2.51,1.12,2.51,2.51
		s-1.12,2.51-2.51,2.51c-2.33,0-5.44,0.58-8.44,1.14C137.73,362.15,134.39,362.78,131.6,362.78z"/>
	<path class="st2" d="M82.37,408.79c-0.74,0-1.46-0.32-1.96-0.94c-5.55-6.93-18.54-23.15-4.15-37.86
		c12.19-12.47,25.8-17.84,37.35-14.75c5.77,1.55,9.81,5.05,11.37,9.86c1.8,5.56,0,12.25-4.95,18.34c-5.12,6.3-9.39,8.91-12.82,11
		c-2.16,1.32-3.86,2.36-5.4,4.04c-0.94,1.02-2.52,1.09-3.54,0.15c-1.02-0.94-1.09-2.52-0.15-3.54c2.02-2.2,4.19-3.52,6.49-4.92
		c3.26-1.99,6.96-4.25,11.53-9.88c3.86-4.75,5.34-9.72,4.07-13.64c-1.02-3.14-3.82-5.47-7.9-6.56c-9.74-2.6-21.58,2.28-32.46,13.41
		c-9.92,10.14-3.71,21,4.48,31.22c0.87,1.08,0.69,2.66-0.39,3.52C83.47,408.61,82.92,408.79,82.37,408.79z"/>
	<path class="st2" d="M100.51,454.76c-0.14,0-0.29-0.01-0.44-0.04c-1.15-0.2-28.2-5.21-28.2-26.45c0-20.7,22.18-35.68,37.13-35.68
		c4.89,0,8.75,2.32,11.16,6.7c3.33,6.05,3.15,15.12,0.77,18.89c-6.07,9.61-12.5,13.06-17.2,15.58c-3.28,1.76-4.88,2.68-5.43,4.46
		c-0.41,1.32-1.81,2.07-3.14,1.66c-1.32-0.41-2.06-1.81-1.66-3.13c1.18-3.82,4.27-5.48,7.85-7.4c4.44-2.38,9.96-5.34,15.33-13.84
		c1.22-1.93,1.67-9.09-0.92-13.79c-1.52-2.76-3.74-4.11-6.77-4.11c-12.63,0-32.11,13.17-32.11,30.66
		c0,17.09,23.81,21.47,24.05,21.52c1.36,0.24,2.27,1.54,2.03,2.9C102.77,453.9,101.71,454.76,100.51,454.76z"/>
</g>
<g>
	<path class="st4" d="M640.43,376.42c0,0-20.39,28.03-34.33,47.24c-13.97,19.18-31.84,23.32-44.78,16.1
		c-15.52-8.65-29.79-17.9-29.79-17.9c-4.61-3.03-2.78-12.24,4.79-15.27c0,0,91.69-36.71,97.54-39.19
		C639.73,364.91,643.99,370.58,640.43,376.42z"/>
	<path class="st2" d="M574.28,445.68c-4.88,0-9.67-1.22-14.18-3.74c-15.41-8.59-29.79-17.89-29.93-17.99
		c-2.62-1.72-3.95-4.87-3.6-8.43c0.49-4.9,3.95-9.33,8.82-11.28c0.92-0.37,91.74-36.73,97.49-39.17c3.59-1.52,7.21-0.84,9.46,1.77
		c2.44,2.83,2.53,7.1,0.23,10.87c-0.04,0.06-0.07,0.12-0.11,0.17c0,0-20.38,28.03-34.33,47.24
		C598.41,438.48,586.12,445.68,574.28,445.68z M636.62,369.3c-0.54,0-1.15,0.13-1.78,0.4c-5.8,2.46-93.84,37.71-97.58,39.21
		c-3.83,1.53-5.46,4.79-5.69,7.12c-0.08,0.8-0.11,2.77,1.35,3.72c0.13,0.08,14.37,9.3,29.63,17.81c13.1,7.31,29.41,1.27,41.53-15.38
		c13.49-18.58,33-45.42,34.26-47.15c1.34-2.25,0.95-4.05,0.21-4.91C638.07,369.58,637.4,369.3,636.62,369.3z M640.43,376.42h0.02
		H640.43z"/>
</g>
<g>
	<path class="st2" d="M482.89,446.4v250.01c0,6.69-2.61,9.63-5.04,9.63c-3.39,0-3.39-4.46-3.39-6.69V448.66
		c0-5.24,2.33-8.98,5.47-8.98C483.09,439.68,482.89,444.15,482.89,446.4z"/>
	<path class="st2" d="M497.93,441.39v250.01c0,6.69-2.61,9.63-5.04,9.63c-3.39,0-3.39-4.46-3.39-6.69V443.64
		c0-5.24,2.33-8.98,5.47-8.98C498.14,434.67,497.93,439.13,497.93,441.39z"/>
	<path class="st2" d="M512.98,436.37v250.01c0,6.69-2.61,9.63-5.04,9.63c-3.39,0-3.39-4.46-3.39-6.69V438.63
		c0-5.24,2.33-8.98,5.47-8.98C513.18,429.65,512.98,434.12,512.98,436.37z"/>
</g>
<rect x="384.29" y="238.95" transform="matrix(0.6678 -0.7443 0.7443 0.6678 -76.6528 379.4711)" class="st2" width="5.01" height="73.32"/>
<rect x="438.81" y="374.67" class="st2" width="5.01" height="385.78"/>
<polygon class="st2" points="719.63,297.67 714.62,297.67 714.62,282.92 702.22,250.01 706.91,248.24 719.63,281.99 719.63,282.5 
	"/>
<rect x="425.2" y="297.68" transform="matrix(0.9393 -0.343 0.343 0.9393 -89.7728 167.1629)" class="st2" width="5.01" height="79.39"/>
<g id="Eyes_2_">
	<g>
		
			<ellipse transform="matrix(0.3119 -0.9501 0.9501 0.3119 75.6892 673.0946)" class="st0" cx="502.55" cy="284.29" rx="82.29" ry="66.99"/>
		<path class="st2" d="M425.06,239.02c-0.46,0-0.92-0.06-1.39-0.2c-2.65-0.76-4.17-3.52-3.41-6.17c0.18-0.61,18.4-61.51,79.11-56.21
			c2.75,0.24,4.78,2.66,4.54,5.41c-0.24,2.74-2.67,4.76-5.41,4.54c-52.47-4.56-68.02,46.84-68.66,49.03
			C429.22,237.6,427.23,239.02,425.06,239.02z"/>
	</g>
	<g>
		
			<ellipse transform="matrix(0.3118 -0.9501 0.9501 0.3118 212.8102 771.1431)" class="st0" cx="638.74" cy="238.66" rx="82.29" ry="67"/>
		<path class="st2" d="M700.12,164.69c-1.74,0-3.43-0.91-4.35-2.52c-1-1.74-24.68-41.81-72.25-14.78c-2.4,1.35-5.45,0.52-6.81-1.88
			c-1.36-2.4-0.52-5.44,1.87-6.81c17.87-10.15,34.89-13.11,50.61-8.76c23.22,6.42,34.78,26.44,35.26,27.29
			c1.36,2.4,0.51,5.45-1.89,6.8C701.8,164.48,700.95,164.69,700.12,164.69z"/>
	</g>
</g>
<path class="st5" d="M526.64,206.42c-35.3-11.61-75.47,14.17-89.71,57.54c-14.24,43.38,2.86,87.93,38.16,99.52
	c35.33,11.58,75.47-14.17,89.71-57.54C579.05,262.56,561.95,218.01,526.64,206.42z M489.79,302.56c-4.74-1.45-6.69-7.97-4.36-14.57
	c2.36-6.62,8.07-10.81,12.81-9.38c4.74,1.45,6.67,7.97,4.34,14.59C500.24,299.8,494.5,304.01,489.79,302.56z"/>
<g>
	<path class="st2" d="M516.99,259.63c-17.98-6.39-38.44,7.82-45.68,31.77c-7.25,23.92,1.45,48.49,19.43,54.89
		c17.98,6.39,38.44-7.82,45.68-31.74C543.67,290.6,534.97,266.02,516.99,259.63z M502.57,293.2c-2.33,6.59-8.07,10.81-12.79,9.35
		c-4.74-1.45-6.69-7.97-4.36-14.57c2.36-6.62,8.07-10.81,12.81-9.38C502.97,280.06,504.9,286.58,502.57,293.2z"/>
</g>
<path class="st5" d="M653.79,213.8c-17.98-6.39-38.44,7.82-45.68,31.77c-7.25,23.92,1.45,48.49,19.43,54.89
	c18,6.39,38.46-7.82,45.71-31.74C680.49,244.76,671.77,220.19,653.79,213.8z M639.37,247.37c-2.33,6.62-8.05,10.81-12.79,9.35
	c-4.74-1.43-6.7-7.97-4.36-14.57c2.36-6.62,8.07-10.81,12.81-9.35C639.78,234.23,641.71,240.75,639.37,247.37z"/>
<path class="st5" d="M663.44,160.59c-10.46-3.44-21.36-3.59-31.87-1c-25,6.22-47.84,28.03-57.84,58.55
	c-14.24,43.38,2.86,87.93,38.19,99.52c35.3,11.61,75.47-14.17,89.71-57.54c1.2-3.66,2.18-7.32,2.93-10.98
	C712.84,209.46,695.79,171.2,663.44,160.59z M673.25,268.71c-7.25,23.92-27.71,38.14-45.71,31.74
	c-17.98-6.39-26.68-30.97-19.43-54.89c7.25-23.95,27.71-38.16,45.68-31.77C671.77,220.19,680.49,244.76,673.25,268.71z"/>
<g>
	<path class="st2" d="M653.79,213.8c-17.98-6.39-38.44,7.82-45.68,31.77c-7.25,23.92,1.45,48.49,19.43,54.89
		c18,6.39,38.46-7.82,45.71-31.74C680.49,244.76,671.77,220.19,653.79,213.8z M639.37,247.37c-2.33,6.62-8.05,10.81-12.79,9.35
		c-4.74-1.43-6.7-7.97-4.36-14.57c2.36-6.62,8.07-10.81,12.81-9.35C639.78,234.23,641.71,240.75,639.37,247.37z"/>
</g>
<path class="st2" d="M556.9,438.86c-0.3,0-0.61-0.06-0.91-0.17c-1.29-0.5-1.92-1.96-1.42-3.25c0.28-0.72,7.13-17.71,27.19-26.52
	c20.57-9.04,33.21,1.7,33.74,2.16c1.04,0.91,1.15,2.5,0.24,3.54c-0.91,1.04-2.49,1.15-3.53,0.25c-0.44-0.38-10.9-9.05-28.43-1.35
	c-18.18,7.99-24.48,23.61-24.54,23.76C558.84,438.26,557.9,438.86,556.9,438.86z"/>
<polygon class="st2" points="717.13,353.5 717.13,388.06 791.3,370.78 852.97,299.73 824.91,277.24 777.05,337.38 "/>
</svg>
